<svg width="463" height="433" viewBox="0 0 463 433" fill="none" xmlns="http://www.w3.org/2000/svg">
<path d="M456.144 311.454L222.194 446.519C220.152 447.559 217.894 448.101 215.603 448.101C213.312 448.101 211.053 447.559 209.012 446.519L43.02 350.676C41.1001 349.431 39.502 347.749 38.3564 345.768C37.2109 343.788 36.5504 341.564 36.429 339.279V252.176C36.5567 249.898 37.2201 247.682 38.3654 245.709C39.5106 243.735 41.1054 242.06 43.02 240.819L276.97 105.734C279.012 104.694 281.27 104.152 283.561 104.152C285.852 104.152 288.111 104.694 290.152 105.734L456.144 201.577C458.062 202.825 459.658 204.507 460.803 206.487C461.948 208.468 462.61 210.69 462.735 212.975V300.037C462.607 302.323 461.944 304.547 460.799 306.531C459.654 308.514 458.06 310.2 456.144 311.454Z" fill="#5F85DB"/>
<path opacity="0.4" d="M215.603 345.789V448.082C213.307 448.143 211.036 447.605 209.012 446.52L42.9998 350.677C41.0842 349.424 39.491 347.737 38.3494 345.753C37.2078 343.77 36.5498 341.545 36.429 339.259V252.177C36.54 250.139 37.0754 248.146 38.0008 246.327C38.9262 244.507 40.2213 242.901 41.8032 241.611C39.4102 243.639 39.7752 246.539 42.9795 248.384L208.992 344.248C211.028 345.316 213.304 345.847 215.603 345.789Z" fill="black"/>
<path opacity="0.2" d="M462.735 212.935V300.038C462.61 302.322 461.949 304.545 460.803 306.525C459.658 308.505 458.062 310.188 456.144 311.435L222.174 446.52C220.153 447.595 217.891 448.133 215.603 448.082V345.789C217.886 345.832 220.141 345.287 222.153 344.207L456.124 209.143C459.51 207.115 459.734 204.093 456.813 201.964C458.546 203.245 459.975 204.892 460.998 206.788C462.022 208.685 462.615 210.783 462.735 212.935Z" fill="black"/>
<path d="M42.9998 240.82L276.95 105.735C278.991 104.695 281.25 104.153 283.541 104.153C285.832 104.153 288.09 104.695 290.132 105.735L456.124 201.578C459.774 203.606 459.774 207.074 456.124 209.183L222.174 344.248C220.129 345.279 217.872 345.815 215.583 345.815C213.293 345.815 211.036 345.279 208.992 344.248L42.9998 248.384C39.3494 246.275 39.3494 242.848 42.9998 240.82Z" fill="#5F85DB"/>
<path opacity="0.3" d="M42.9998 240.82L276.95 105.735C278.991 104.695 281.25 104.153 283.541 104.153C285.832 104.153 288.09 104.695 290.132 105.735L456.124 201.578C459.774 203.606 459.774 207.074 456.124 209.183L222.174 344.248C220.129 345.279 217.872 345.815 215.583 345.815C213.293 345.815 211.036 345.279 208.992 344.248L42.9998 248.384C39.3494 246.275 39.3494 242.848 42.9998 240.82Z" fill="black"/>
<path opacity="0.1" d="M36.429 289.776L212.115 391.176C213.18 391.784 214.386 392.104 215.613 392.104C216.84 392.104 218.046 391.784 219.111 391.176L462.755 250.554V260.066L219.111 400.728C218.046 401.336 216.84 401.656 215.613 401.656C214.386 401.656 213.18 401.336 212.115 400.728L36.429 299.328V289.776Z" fill="black"/>
<path d="M184.331 329.93C184.331 329.829 184.331 329.748 184.331 329.646C194.235 325.444 204.884 323.278 215.643 323.278C226.402 323.278 237.051 325.444 246.956 329.646C246.956 329.748 246.956 329.829 246.956 329.93L222.234 344.126C220.223 345.206 217.967 345.751 215.684 345.708C213.381 345.753 211.106 345.209 209.073 344.126L184.412 329.93" fill="#455A64"/>
<path d="M456.124 201.578L435.053 189.41C420.025 198.212 420.066 212.367 435.215 221.128H435.357L456.124 209.163C459.774 207.074 459.774 203.667 456.124 201.578Z" fill="#455A64"/>
<path d="M43.0606 240.82L64.1315 228.652C79.1793 237.453 79.1184 251.609 63.9693 260.37H63.8273L43.0606 248.405C39.4305 246.235 39.4305 242.848 43.0606 240.82Z" fill="#455A64"/>
<path d="M313.089 118.957L290.132 105.694C288.09 104.654 285.832 104.112 283.541 104.112C281.25 104.112 278.991 104.654 276.95 105.694L254.317 118.755C254.966 119.181 255.595 119.627 256.345 120.032C271.555 128.814 296.236 128.814 311.446 120.032C312.014 119.688 312.541 119.323 313.089 118.957Z" fill="#455A64"/>
<path d="M246.976 329.93C244.684 348.994 232.009 365.806 215.704 377.203V345.789C217.987 345.832 220.243 345.287 222.255 344.207L246.976 329.93Z" fill="#37474F"/>
<path d="M456.124 209.143L435.235 221.209C435.235 238.67 447.586 243.7 462.755 234.939V212.915C462.631 210.63 461.969 208.408 460.824 206.427C459.678 204.447 458.082 202.765 456.164 201.517L454.684 200.645L456.164 201.497C459.754 203.626 459.754 207.034 456.124 209.143Z" fill="#37474F"/>
<path d="M462.735 300.038V275.479C447.545 284.28 435.215 305.615 435.215 323.177C435.215 323.278 435.215 323.4 435.215 323.502L456.894 310.908C458.597 309.627 460.002 307.992 461.01 306.115C462.019 304.238 462.607 302.164 462.735 300.038Z" fill="#37474F"/>
<path d="M243.163 434.393C243.163 416.911 230.793 409.854 215.603 418.615V448.102C217.886 448.145 220.141 447.6 222.153 446.52L243.163 434.393Z" fill="#37474F"/>
<path d="M215.603 345.789V377.203C199.257 365.725 186.623 348.953 184.331 329.93L209.052 344.126C211.057 345.234 213.313 345.807 215.603 345.789Z" fill="#263238"/>
<path d="M188.164 434.393L209.154 446.561C211.166 447.641 213.421 448.185 215.704 448.143V418.615C200.433 409.854 188.164 416.911 188.164 434.393Z" fill="#263238"/>
<path d="M37.22 315.532C36.9563 315.369 36.6927 315.268 36.429 315.126V339.32C36.5396 341.438 37.1081 343.506 38.0954 345.383C39.0828 347.259 40.4654 348.899 42.148 350.19L64.6791 363.271C64.7602 345.688 52.43 324.313 37.22 315.532Z" fill="#263238"/>
<path d="M43.0606 248.303L63.9693 260.37C63.9693 277.831 51.5985 284.909 36.429 276.168V252.075C36.5666 249.793 37.2407 247.575 38.3965 245.601C39.5523 243.628 41.1572 241.955 43.0809 240.719C39.4508 242.848 39.4305 246.194 43.0606 248.303Z" fill="#263238"/>
<path d="M279.769 346.682L266.79 354.165C266.279 354.498 265.855 354.947 265.551 355.476C265.248 356.005 265.075 356.598 265.046 357.207V381.685C265.081 382.292 265.257 382.883 265.56 383.411C265.863 383.939 266.283 384.389 266.79 384.727L267.966 385.396C268.508 385.675 269.11 385.821 269.72 385.821C270.33 385.821 270.932 385.675 271.474 385.396L284.433 377.913C284.949 377.583 285.378 377.135 285.685 376.606C285.992 376.077 286.168 375.482 286.198 374.871V350.332C286.162 349.725 285.986 349.134 285.683 348.606C285.38 348.078 284.96 347.628 284.453 347.29L283.277 346.621C282.73 346.351 282.126 346.216 281.516 346.226C280.905 346.237 280.306 346.393 279.769 346.682Z" fill="#5F85DB"/>
<path opacity="0.5" d="M279.769 346.682L266.79 354.165C266.279 354.498 265.855 354.947 265.551 355.476C265.248 356.005 265.075 356.598 265.046 357.207V381.685C265.081 382.292 265.257 382.883 265.56 383.411C265.863 383.939 266.283 384.389 266.79 384.727L267.966 385.396C268.508 385.675 269.11 385.821 269.72 385.821C270.33 385.821 270.932 385.675 271.474 385.396L284.433 377.913C284.949 377.583 285.378 377.135 285.685 376.606C285.992 376.077 286.168 375.482 286.198 374.871V350.332C286.162 349.725 285.986 349.134 285.683 348.606C285.38 348.078 284.96 347.628 284.453 347.29L283.277 346.621C282.73 346.351 282.126 346.216 281.516 346.226C280.905 346.237 280.306 346.393 279.769 346.682Z" fill="white"/>
<path opacity="0.1" d="M271.069 385.579C270.567 385.767 270.032 385.847 269.498 385.816C268.963 385.785 268.442 385.642 267.966 385.396L266.79 384.727C266.277 384.394 265.851 383.945 265.544 383.416C265.238 382.888 265.06 382.295 265.025 381.685V357.207C265.054 356.575 265.242 355.961 265.573 355.422L270.237 358.16C269.913 358.686 269.731 359.287 269.71 359.904V384.382C269.71 385.356 270.278 385.822 271.069 385.579Z" fill="black"/>
<path opacity="0.1" d="M271.069 385.579C270.567 385.767 270.032 385.847 269.498 385.816C268.963 385.785 268.442 385.642 267.966 385.396L266.79 384.727C266.277 384.394 265.851 383.945 265.544 383.416C265.238 382.888 265.06 382.295 265.025 381.685V357.207C265.054 356.575 265.242 355.961 265.573 355.422L270.237 358.16C269.913 358.686 269.731 359.287 269.71 359.904V384.382C269.71 385.356 270.278 385.822 271.069 385.579Z" fill="#5F85DB"/>
<path d="M269.73 359.904V384.382C269.73 385.518 270.521 385.964 271.474 385.396L284.433 377.913C284.949 377.583 285.378 377.135 285.685 376.606C285.992 376.077 286.168 375.482 286.198 374.871V350.332C286.198 349.217 285.407 348.77 284.453 349.318L271.474 356.801C270.957 357.141 270.528 357.601 270.225 358.141C269.921 358.68 269.752 359.285 269.73 359.904Z" fill="#5F85DB"/>
<path opacity="0.2" d="M269.73 359.904V384.382C269.73 385.518 270.521 385.964 271.474 385.396L284.433 377.913C284.949 377.583 285.378 377.135 285.685 376.606C285.992 376.077 286.168 375.482 286.198 374.871V350.332C286.198 349.217 285.407 348.77 284.453 349.318L271.474 356.801C270.957 357.141 270.528 357.601 270.225 358.141C269.921 358.68 269.752 359.285 269.73 359.904Z" fill="white"/>
<path d="M411.568 270.571L398.589 278.054C398.083 278.392 397.662 278.842 397.36 279.37C397.057 279.898 396.881 280.489 396.845 281.096V305.574C396.878 306.184 397.056 306.778 397.362 307.307C397.669 307.836 398.096 308.284 398.61 308.616L399.766 309.306C400.316 309.571 400.919 309.709 401.53 309.709C402.141 309.709 402.744 309.571 403.294 309.306L416.253 301.822C416.759 301.485 417.18 301.034 417.483 300.506C417.785 299.979 417.962 299.388 417.997 298.78V274.282C417.966 273.673 417.792 273.081 417.489 272.552C417.186 272.024 416.763 271.574 416.253 271.24L415.077 270.571C414.534 270.291 413.933 270.146 413.323 270.146C412.712 270.146 412.111 270.291 411.568 270.571Z" fill="#5F85DB"/>
<path opacity="0.5" d="M411.568 270.571L398.589 278.054C398.083 278.392 397.662 278.842 397.36 279.37C397.057 279.898 396.881 280.489 396.845 281.096V305.574C396.878 306.184 397.056 306.778 397.362 307.307C397.669 307.836 398.096 308.284 398.61 308.616L399.766 309.306C400.316 309.571 400.919 309.709 401.53 309.709C402.141 309.709 402.744 309.571 403.294 309.306L416.253 301.822C416.759 301.485 417.18 301.034 417.483 300.506C417.785 299.979 417.962 299.388 417.997 298.78V274.282C417.966 273.673 417.792 273.081 417.489 272.552C417.186 272.024 416.763 271.574 416.253 271.24L415.077 270.571C414.534 270.291 413.933 270.146 413.323 270.146C412.712 270.146 412.111 270.291 411.568 270.571Z" fill="white"/>
<path opacity="0.1" d="M402.868 309.468C402.367 309.656 401.832 309.737 401.298 309.705C400.763 309.674 400.241 309.531 399.766 309.285L398.589 308.616C398.08 308.282 397.656 307.832 397.353 307.304C397.05 306.775 396.876 306.182 396.845 305.574V281.096C396.849 280.479 397.025 279.875 397.352 279.352L402.037 282.049C401.718 282.569 401.544 283.164 401.53 283.773V308.251C401.53 309.245 402.098 309.772 402.868 309.468Z" fill="black"/>
<path opacity="0.1" d="M402.868 309.468C402.367 309.656 401.832 309.737 401.298 309.705C400.763 309.674 400.241 309.531 399.766 309.285L398.589 308.616C398.08 308.282 397.656 307.832 397.353 307.304C397.05 306.775 396.876 306.182 396.845 305.574V281.096C396.849 280.479 397.025 279.875 397.352 279.352L402.037 282.049C401.718 282.569 401.544 283.164 401.53 283.773V308.251C401.53 309.245 402.098 309.772 402.868 309.468Z" fill="#5F85DB"/>
<path d="M401.53 283.793V308.292C401.53 309.407 402.321 309.853 403.294 309.306L416.253 301.822C416.763 301.488 417.186 301.038 417.489 300.51C417.792 299.981 417.966 299.389 417.997 298.78V274.282C417.997 273.167 417.227 272.72 416.253 273.268L403.274 280.751C402.768 281.089 402.347 281.539 402.044 282.067C401.742 282.595 401.566 283.186 401.53 283.793Z" fill="#5F85DB"/>
<path opacity="0.2" d="M401.53 283.793V308.292C401.53 309.407 402.321 309.853 403.294 309.306L416.253 301.822C416.763 301.488 417.186 301.038 417.489 300.51C417.792 299.981 417.966 299.389 417.997 298.78V274.282C417.997 273.167 417.227 272.72 416.253 273.268L403.274 280.751C402.768 281.089 402.347 281.539 402.044 282.067C401.742 282.595 401.566 283.186 401.53 283.793Z" fill="white"/>
<path d="M317.449 358.444V368.361C317.428 368.766 317.313 369.16 317.112 369.512C316.911 369.864 316.631 370.165 316.293 370.389L302.259 378.501C301.9 378.691 301.5 378.79 301.093 378.79C300.687 378.79 300.286 378.691 299.927 378.501L299.156 378.055C298.812 377.836 298.525 377.538 298.32 377.185C298.115 376.832 297.999 376.435 297.98 376.027V366.13C298.003 365.724 298.122 365.328 298.326 364.976C298.531 364.623 298.815 364.324 299.156 364.102L313.19 355.99C313.549 355.81 313.945 355.716 314.346 355.716C314.748 355.716 315.143 355.81 315.502 355.99L316.293 356.436C316.628 356.659 316.907 356.956 317.107 357.304C317.308 357.652 317.425 358.043 317.449 358.444Z" fill="#263238"/>
<path d="M316.293 370.389L302.259 378.501C301.61 378.886 301.083 378.501 301.083 377.832V367.935C301.101 367.527 301.218 367.13 301.423 366.777C301.627 366.424 301.914 366.125 302.259 365.907L316.293 357.795C316.922 357.43 317.449 357.795 317.449 358.464V368.381C317.425 368.783 317.308 369.173 317.107 369.521C316.907 369.87 316.628 370.167 316.293 370.389Z" fill="#37474F"/>
<path d="M388.611 317.296V327.193C388.593 327.6 388.477 327.998 388.272 328.351C388.067 328.704 387.78 329.002 387.435 329.221L373.401 337.333C373.043 337.513 372.647 337.607 372.246 337.607C371.844 337.607 371.448 337.513 371.09 337.333L370.319 336.886C369.978 336.664 369.693 336.365 369.489 336.013C369.284 335.66 369.166 335.265 369.143 334.858V324.962C369.161 324.554 369.278 324.157 369.482 323.804C369.687 323.45 369.974 323.152 370.319 322.934L384.332 314.822C384.695 314.641 385.094 314.547 385.498 314.547C385.903 314.547 386.302 314.641 386.665 314.822L387.435 315.268C387.777 315.49 388.061 315.789 388.265 316.142C388.47 316.494 388.588 316.889 388.611 317.296Z" fill="#263238"/>
<path d="M387.435 329.322L373.401 337.434C372.773 337.799 372.246 337.434 372.246 336.765V326.848C372.266 326.443 372.382 326.049 372.583 325.697C372.783 325.344 373.064 325.044 373.401 324.82L387.435 316.708C388.084 316.343 388.611 316.708 388.611 317.377V327.294C388.592 327.701 388.474 328.098 388.27 328.451C388.065 328.804 387.779 329.102 387.435 329.322Z" fill="#37474F"/>
<path d="M384.495 324.252L376.2 329.038V333.094L380.804 335.751V340.456C380.707 342.285 380.181 344.067 379.269 345.655C378.356 347.244 377.083 348.596 375.551 349.602L322.823 380.022C322.384 380.273 321.914 380.464 321.424 380.59C321.289 380.115 321.22 379.623 321.221 379.13V370.206L317.55 368.077L312.967 365.441L304.713 370.186V374.242L309.337 376.899V385.011C309.284 385.872 309.441 386.734 309.794 387.522C310.147 388.31 310.686 389 311.365 389.533C312.095 390.06 314.894 391.561 315.421 391.967C318.483 393.792 324.081 392.961 330.53 389.249L375.146 363.453C384.839 357.856 392.708 347.817 392.708 341.145V328.977L384.495 324.252Z" fill="#263238"/>
<path d="M312.947 387.384C312.947 394.137 320.795 395.07 330.509 389.412L375.125 363.615C384.819 358.018 392.688 347.98 392.688 341.307V329.139L384.576 324.353L376.281 329.139L384.576 333.925V342.788C384.479 344.615 383.953 346.393 383.04 347.979C382.128 349.564 380.854 350.912 379.323 351.914L326.595 382.334C323.675 384.017 321.322 382.658 321.322 379.292V370.369L313.048 365.603L304.794 370.348L313.089 375.134L312.947 387.384Z" fill="#37474F"/>
<path d="M384.495 324.252L376.22 329.058L384.515 333.824L392.688 329.038L384.495 324.252Z" fill="#455A64"/>
<path d="M312.906 365.603L304.652 370.348L312.947 375.134L321.181 370.369L312.906 365.603Z" fill="#455A64"/>
<path opacity="0.15" d="M205.361 342.078L36.429 244.308V339.259C36.5565 341.359 37.133 343.407 38.1196 345.264C39.1062 347.122 40.4799 348.746 42.148 350.028L174.982 426.24L205.361 342.078Z" fill="black"/>
<path opacity="0.15" d="M439.17 199.489L276.828 105.775L42.9998 240.82C39.3494 242.848 39.3494 246.316 42.9998 248.425L205.341 342.139L439.17 207.135C442.8 205.006 442.8 201.598 439.17 199.489Z" fill="black"/>
<path d="M419.762 207.743L185.812 342.828C183.767 343.859 181.51 344.396 179.221 344.396C176.931 344.396 174.674 343.859 172.63 342.828L6.63772 246.904C4.72181 245.65 3.12722 243.963 1.98241 241.98C0.837599 239.997 0.174565 237.773 0.0467224 235.486V148.485C0.171383 146.198 0.833069 143.973 1.97817 141.989C3.12326 140.005 4.71956 138.319 6.63772 137.067L240.588 1.98242C242.632 0.951915 244.889 0.415131 247.179 0.415131C249.468 0.415131 251.726 0.951915 253.77 1.98242L419.762 97.8257C421.681 99.0763 423.278 100.762 424.423 102.746C425.568 104.73 426.229 106.956 426.353 109.243V196.346C426.231 198.631 425.571 200.855 424.425 202.836C423.28 204.817 421.682 206.498 419.762 207.743Z" fill="#5F85DB"/>
<path opacity="0.45" d="M179.241 242.098V344.39C176.945 344.451 174.674 343.913 172.65 342.828L6.63774 246.904C4.72222 245.651 3.12901 243.965 1.98737 241.981C0.845728 239.997 0.187819 237.772 0.0670166 235.486V148.485C0.177991 146.447 0.713326 144.454 1.63875 142.635C2.56418 140.816 3.8593 139.209 5.44122 137.919C3.04818 139.947 3.41322 142.847 6.61746 144.693L172.63 240.516C174.662 241.598 176.938 242.143 179.241 242.098Z" fill="white"/>
<path opacity="0.1" d="M179.241 242.098V344.39C176.945 344.451 174.674 343.913 172.65 342.828L6.63774 246.904C4.72222 245.651 3.12901 243.965 1.98737 241.981C0.845728 239.997 0.187819 237.772 0.0670166 235.486V148.485C0.177991 146.447 0.713326 144.454 1.63875 142.635C2.56418 140.816 3.8593 139.209 5.44122 137.919C3.04818 139.947 3.41322 142.847 6.61746 144.693L172.63 240.516C174.662 241.598 176.938 242.143 179.241 242.098Z" fill="black"/>
<path opacity="0.55" d="M426.373 109.243V196.346C426.248 198.63 425.587 200.853 424.441 202.833C423.296 204.814 421.7 206.496 419.782 207.743L185.812 342.828C183.791 343.904 181.529 344.441 179.241 344.39V242.098C181.524 242.14 183.779 241.596 185.791 240.516L419.762 105.451C423.148 103.423 423.371 100.401 420.451 98.2719C422.184 99.5532 423.613 101.201 424.636 103.097C425.66 104.993 426.253 107.092 426.373 109.243Z" fill="white"/>
<path d="M6.61743 137.068L240.588 1.98245C242.628 0.952143 244.883 0.415405 247.169 0.415405C249.455 0.415405 251.709 0.952143 253.749 1.98245L419.762 97.8257C423.392 99.8537 423.392 103.342 419.762 105.431L185.791 240.516C183.753 241.556 181.498 242.098 179.21 242.098C176.923 242.098 174.667 241.556 172.63 240.516L6.61743 144.673C2.98731 142.584 2.98731 139.177 6.61743 137.068Z" fill="#5F85DB"/>
<path opacity="0.65" d="M6.61743 137.068L240.588 1.98245C242.628 0.952143 244.883 0.415405 247.169 0.415405C249.455 0.415405 251.709 0.952143 253.749 1.98245L419.762 97.8257C423.392 99.8537 423.392 103.342 419.762 105.431L185.791 240.516C183.753 241.556 181.498 242.098 179.21 242.098C176.923 242.098 174.667 241.556 172.63 240.516L6.61743 144.673C2.98731 142.584 2.98731 139.177 6.61743 137.068Z" fill="white"/>
<path d="M22.9428 143.476C22.7654 143.467 22.5922 143.418 22.4358 143.334L18.2784 140.941L22.4358 138.528C22.6698 138.393 22.9476 138.357 23.2081 138.428C23.4687 138.498 23.6906 138.669 23.825 138.903C23.9595 139.137 23.9955 139.415 23.9251 139.675C23.8548 139.936 23.6838 140.158 23.4498 140.292L22.3344 140.941L23.4498 141.57C23.6815 141.709 23.8493 141.933 23.9176 142.195C23.9858 142.456 23.9489 142.734 23.8149 142.969C23.7264 143.122 23.5994 143.25 23.4464 143.339C23.2934 143.428 23.1198 143.475 22.9428 143.476Z" fill="white"/>
<path d="M28.1548 137.392C27.9335 137.39 27.719 137.315 27.5441 137.18C27.3692 137.044 27.2434 136.855 27.1859 136.641C27.1285 136.428 27.1425 136.201 27.2259 135.996C27.3093 135.791 27.4575 135.619 27.6478 135.506L32.8598 132.504C32.9745 132.421 33.1055 132.363 33.2442 132.333C33.383 132.303 33.5264 132.303 33.6652 132.332C33.8041 132.362 33.9352 132.42 34.0502 132.503C34.1652 132.586 34.2615 132.692 34.3328 132.815C34.4041 132.938 34.4489 133.074 34.4642 133.215C34.4796 133.356 34.4651 133.499 34.4219 133.634C34.3786 133.769 34.3075 133.893 34.2131 133.999C34.1186 134.105 34.0031 134.19 33.8738 134.249L28.6618 137.27C28.5043 137.349 28.3309 137.391 28.1548 137.392ZM38.5584 131.308C38.3371 131.306 38.1227 131.231 37.9477 131.096C37.7728 130.96 37.647 130.771 37.5896 130.557C37.5321 130.344 37.5462 130.117 37.6295 129.912C37.7129 129.707 37.8611 129.535 38.0514 129.422L43.2634 126.4C43.4974 126.266 43.7752 126.23 44.0357 126.3C44.2962 126.37 44.5181 126.541 44.6526 126.775C44.787 127.009 44.8231 127.287 44.7527 127.548C44.6823 127.808 44.5114 128.03 44.2774 128.165L39.0654 131.308C38.9002 131.358 38.7237 131.358 38.5584 131.308ZM48.9824 125.224C48.7611 125.222 48.5466 125.147 48.3717 125.012C48.1967 124.876 48.0709 124.687 48.0135 124.473C47.956 124.26 47.9701 124.033 48.0535 123.828C48.1369 123.623 48.285 123.451 48.4754 123.338L53.6873 120.336C53.8021 120.253 53.9331 120.195 54.0718 120.165C54.2106 120.135 54.354 120.135 54.4928 120.164C54.6316 120.194 54.7628 120.252 54.8778 120.335C54.9928 120.418 55.089 120.524 55.1603 120.647C55.2316 120.77 55.2764 120.906 55.2918 121.047C55.3071 121.188 55.2927 121.331 55.2494 121.466C55.2062 121.601 55.135 121.725 55.0406 121.831C54.9462 121.937 54.8306 122.022 54.7013 122.081L49.4894 125.224C49.3302 125.296 49.1568 125.33 48.9824 125.325V125.224ZM59.386 119.14C59.1647 119.138 58.9502 119.063 58.7753 118.928C58.6004 118.792 58.4746 118.603 58.4171 118.389C58.3597 118.176 58.3737 117.949 58.4571 117.744C58.5405 117.539 58.6887 117.367 58.879 117.254L64.091 114.232C64.3249 114.098 64.6027 114.062 64.8633 114.132C65.1238 114.202 65.3457 114.373 65.4801 114.607C65.6146 114.841 65.6506 115.119 65.5803 115.38C65.5099 115.64 65.3389 115.862 65.105 115.997L59.893 119.14C59.7475 119.253 59.57 119.317 59.386 119.322V119.14ZM69.8099 113.056C69.5886 113.054 69.3742 112.979 69.1992 112.844C69.0243 112.708 68.8985 112.519 68.841 112.305C68.7836 112.092 68.7976 111.865 68.881 111.66C68.9644 111.455 69.1126 111.283 69.3029 111.17L74.596 108.412C74.7108 108.328 74.8417 108.27 74.9805 108.24C75.1192 108.211 75.2627 108.21 75.4015 108.24C75.5403 108.269 75.6715 108.327 75.7864 108.41C75.9014 108.493 75.9977 108.6 76.069 108.722C76.1403 108.845 76.1851 108.981 76.2005 109.122C76.2158 109.263 76.2014 109.406 76.1581 109.541C76.1148 109.676 76.0437 109.801 75.9493 109.907C75.8549 110.013 75.7393 110.098 75.61 110.156L70.398 113.178C70.2161 113.269 70.0133 113.311 69.8099 113.299V113.056ZM80.2136 106.972C80.0366 106.971 79.863 106.924 79.71 106.835C79.557 106.746 79.43 106.618 79.3415 106.465C79.2085 106.233 79.1722 105.959 79.2405 105.7C79.3089 105.442 79.4764 105.221 79.7066 105.086L84.9185 102.064C85.0344 101.998 85.1622 101.955 85.2947 101.937C85.4272 101.92 85.5618 101.929 85.6908 101.964C85.8198 101.999 85.9407 102.059 86.0465 102.14C86.1524 102.222 86.2411 102.324 86.3077 102.439C86.3743 102.555 86.4174 102.683 86.4346 102.816C86.4517 102.948 86.4427 103.083 86.4078 103.212C86.373 103.341 86.3131 103.462 86.2315 103.567C86.15 103.673 86.0484 103.762 85.9325 103.829L80.68 107.154C80.5412 107.245 80.3794 107.294 80.2136 107.296V106.972ZM90.6375 100.888C90.4605 100.887 90.2869 100.84 90.1339 100.751C89.981 100.662 89.8539 100.534 89.7654 100.381C89.6314 100.146 89.5945 99.8685 89.6628 99.6069C89.731 99.3454 89.8989 99.121 90.1305 98.9817L95.3424 95.9802C95.4564 95.9116 95.583 95.8666 95.7147 95.8478C95.8464 95.829 95.9806 95.8369 96.1092 95.871C96.2378 95.905 96.3583 95.9645 96.4634 96.046C96.5686 96.1275 96.6564 96.2292 96.7215 96.3453C96.8555 96.5799 96.8924 96.8578 96.8242 97.1193C96.7559 97.3809 96.5881 97.6053 96.3564 97.7446L91.1445 100.746C91.0382 100.978 90.8605 101.17 90.6375 101.294V100.888ZM398.224 97.704C398.048 97.7049 397.874 97.6631 397.717 97.5823L392.505 94.5606C392.376 94.5022 392.26 94.4173 392.166 94.3114C392.072 94.2055 392 94.0809 391.957 93.9458C391.914 93.8107 391.899 93.668 391.915 93.5269C391.93 93.3859 391.975 93.2496 392.046 93.127C392.118 93.0043 392.214 92.898 392.329 92.8148C392.444 92.7317 392.575 92.6737 392.714 92.6444C392.853 92.6152 392.996 92.6153 393.135 92.645C393.274 92.6746 393.405 92.7331 393.519 92.8166L398.731 95.818C398.922 95.9309 399.07 96.103 399.153 96.308C399.237 96.513 399.251 96.7396 399.193 96.9533C399.136 97.167 399.01 97.3561 398.835 97.4916C398.66 97.6272 398.446 97.7018 398.224 97.704ZM100.96 95.2704C100.783 95.2693 100.609 95.222 100.456 95.133C100.303 95.0441 100.176 94.9167 100.088 94.7634C99.9549 94.5318 99.9186 94.2571 99.987 93.9989C100.055 93.7407 100.223 93.5198 100.453 93.3844L105.665 90.383C105.894 90.2796 106.153 90.2647 106.392 90.3412C106.631 90.4178 106.833 90.5803 106.959 90.7973C107.085 91.0143 107.127 91.2704 107.075 91.516C107.023 91.7617 106.882 91.9794 106.679 92.127L101.467 95.1285C101.317 95.2269 101.14 95.2765 100.96 95.2704ZM387.719 92.1067C387.54 92.108 387.365 92.0588 387.212 91.9648L382 88.9633C381.884 88.8982 381.782 88.8105 381.701 88.7053C381.619 88.6001 381.56 88.4797 381.526 88.3511C381.492 88.2225 381.484 88.0883 381.503 87.9566C381.522 87.8249 381.567 87.6983 381.635 87.5843C381.771 87.3546 381.99 87.1862 382.247 87.1144C382.504 87.0426 382.779 87.0729 383.014 87.199L388.226 90.2207C388.417 90.3336 388.565 90.5057 388.648 90.7107C388.731 90.9157 388.746 91.1423 388.688 91.356C388.631 91.5697 388.505 91.7588 388.33 91.8943C388.155 92.0299 387.94 92.1045 387.719 92.1067ZM111.384 89.2676C111.207 89.2665 111.033 89.2191 110.88 89.1302C110.727 89.0412 110.6 88.9138 110.512 88.7606C110.378 88.5259 110.341 88.248 110.409 87.9865C110.477 87.7249 110.645 87.5005 110.877 87.3612L116.089 84.3598C116.203 84.2912 116.329 84.2462 116.461 84.2274C116.593 84.2086 116.727 84.2165 116.856 84.2505C116.984 84.2846 117.105 84.3441 117.21 84.4256C117.315 84.5071 117.403 84.6088 117.468 84.7248C117.602 84.9595 117.639 85.2374 117.571 85.4989C117.502 85.7604 117.334 85.9848 117.103 86.1241L111.891 89.1256C111.759 89.1993 111.615 89.2475 111.465 89.2676H111.384ZM377.316 86.0836C377.139 86.087 376.964 86.0451 376.809 85.9619L371.597 82.9605C371.365 82.8212 371.197 82.5967 371.129 82.3352C371.061 82.0737 371.098 81.7958 371.232 81.5611C371.297 81.4451 371.384 81.3434 371.49 81.2619C371.595 81.1804 371.715 81.1209 371.844 81.0869C371.972 81.0528 372.107 81.0449 372.238 81.0637C372.37 81.0825 372.497 81.1275 372.611 81.1961L377.823 84.1976C378.053 84.333 378.22 84.5538 378.289 84.812C378.357 85.0702 378.321 85.345 378.188 85.5766C378.109 85.721 377.996 85.8432 377.857 85.9318C377.719 86.0205 377.561 86.0727 377.397 86.0836H377.316ZM121.788 83.2444C121.566 83.2421 121.352 83.1675 121.177 83.032C121.002 82.8964 120.876 82.7074 120.819 82.4937C120.761 82.28 120.775 82.0533 120.859 81.8483C120.942 81.6433 121.09 81.4712 121.281 81.3583L126.472 78.3569C126.587 78.2735 126.718 78.215 126.857 78.1854C126.995 78.1557 127.139 78.1555 127.278 78.1848C127.417 78.214 127.548 78.2721 127.663 78.3552C127.778 78.4383 127.874 78.5447 127.945 78.6673C128.017 78.79 128.061 78.9262 128.077 79.0673C128.092 79.2083 128.078 79.351 128.034 79.4861C127.991 79.6213 127.92 79.7458 127.826 79.8517C127.731 79.9576 127.616 80.0426 127.486 80.101L122.295 83.1024C122.172 83.18 122.033 83.2286 121.889 83.2444H121.788ZM366.871 80.0807C366.692 80.0819 366.517 80.0327 366.364 79.9387L361.152 76.9373C361.036 76.8722 360.935 76.7844 360.853 76.6793C360.772 76.5741 360.712 76.4536 360.678 76.325C360.644 76.1964 360.636 76.0623 360.655 75.9306C360.674 75.7988 360.719 75.6722 360.787 75.5583C360.923 75.3285 361.142 75.1602 361.399 75.0884C361.656 75.0166 361.931 75.0469 362.166 75.173L367.378 78.1947C367.569 78.3076 367.717 78.4797 367.8 78.6846C367.884 78.8896 367.898 79.1163 367.84 79.33C367.783 79.5437 367.657 79.7328 367.482 79.8683C367.307 80.0039 367.093 80.0785 366.871 80.0807ZM132.191 77.2415C132.014 77.2404 131.841 77.1931 131.688 77.1041C131.535 77.0152 131.408 76.8878 131.319 76.7345C131.185 76.4998 131.148 76.222 131.216 75.9604C131.285 75.6989 131.453 75.4745 131.684 75.3352L136.896 72.3337C137.01 72.2651 137.137 72.2201 137.268 72.2014C137.4 72.1826 137.534 72.1905 137.663 72.2245C137.792 72.2586 137.912 72.3181 138.017 72.3995C138.122 72.481 138.21 72.5828 138.275 72.6988C138.409 72.9335 138.446 73.2113 138.378 73.4729C138.31 73.7344 138.142 73.9588 137.91 74.0981L132.698 77.0996C132.573 77.1727 132.436 77.2209 132.293 77.2415H132.191ZM356.488 74.0778C356.31 74.0716 356.136 74.023 355.981 73.9359L350.769 70.9344C350.537 70.7951 350.37 70.5707 350.301 70.3092C350.233 70.0477 350.27 69.7698 350.404 69.5351C350.469 69.4191 350.557 69.3173 350.662 69.2359C350.767 69.1544 350.888 69.0949 351.016 69.0608C351.145 69.0268 351.279 69.0189 351.411 69.0377C351.542 69.0564 351.669 69.1015 351.783 69.1701L356.995 72.1715C357.227 72.3108 357.395 72.5352 357.463 72.7968C357.531 73.0583 357.494 73.3361 357.36 73.5708C357.272 73.7241 357.145 73.8515 356.992 73.9405C356.839 74.0294 356.665 74.0768 356.488 74.0778ZM142.696 71.2183C142.519 71.2173 142.346 71.1699 142.193 71.081C142.04 70.992 141.913 70.8646 141.824 70.7113C141.691 70.4797 141.655 70.205 141.723 69.9468C141.792 69.6886 141.959 69.4678 142.189 69.3323L147.401 66.412C147.516 66.3285 147.647 66.2701 147.786 66.2404C147.924 66.2108 148.068 66.2106 148.207 66.2398C148.346 66.2691 148.477 66.3272 148.592 66.4103C148.707 66.4934 148.803 66.5997 148.874 66.7224C148.946 66.8451 148.99 66.9813 149.006 67.1224C149.021 67.2634 149.007 67.4061 148.963 67.5412C148.92 67.6764 148.849 67.8009 148.754 67.9068C148.66 68.0127 148.544 68.0976 148.415 68.1561L143.203 71.1575C143.044 71.2279 142.868 71.2491 142.696 71.2183ZM346.145 68.0547C345.966 68.0559 345.79 68.0067 345.638 67.9127L340.426 64.9113C340.297 64.8528 340.181 64.7679 340.087 64.662C339.992 64.5561 339.921 64.4316 339.878 64.2964C339.835 64.1613 339.82 64.0186 339.836 63.8776C339.851 63.7365 339.896 63.6002 339.967 63.4776C340.039 63.3549 340.135 63.2486 340.25 63.1655C340.365 63.0824 340.496 63.0243 340.635 62.995C340.774 62.9658 340.917 62.966 341.056 62.9957C341.194 63.0253 341.325 63.0837 341.44 63.1672L346.652 66.1686C346.842 66.2816 346.991 66.4536 347.074 66.6586C347.157 66.8636 347.172 67.0902 347.114 67.3039C347.057 67.5177 346.931 67.7067 346.756 67.8423C346.581 67.9778 346.366 68.0524 346.145 68.0547ZM153.12 65.2155C152.943 65.2144 152.77 65.1671 152.617 65.0781C152.464 64.9892 152.337 64.8617 152.248 64.7085C152.114 64.4738 152.077 64.1959 152.145 63.9344C152.214 63.6729 152.382 63.4485 152.613 63.3092L157.744 60.328C157.858 60.2594 157.985 60.2143 158.116 60.1956C158.248 60.1768 158.382 60.1847 158.511 60.2188C158.639 60.2528 158.76 60.3123 158.865 60.3938C158.97 60.4753 159.058 60.577 159.123 60.693C159.257 60.9277 159.294 61.2056 159.226 61.4671C159.158 61.7286 158.99 61.953 158.758 62.0923L153.688 65.0735C153.518 65.1792 153.32 65.2289 153.12 65.2155ZM335.742 62.0518C335.563 62.0481 335.389 61.9993 335.235 61.9098L330.124 58.9084C329.892 58.7691 329.724 58.5447 329.656 58.2831C329.588 58.0216 329.625 57.7438 329.759 57.5091C329.824 57.3931 329.912 57.2913 330.017 57.2098C330.122 57.1283 330.243 57.0688 330.371 57.0348C330.5 57.0007 330.634 56.9929 330.766 57.0116C330.897 57.0304 331.024 57.0754 331.138 57.144L336.35 60.1455C336.582 60.2848 336.749 60.5092 336.818 60.7707C336.886 61.0322 336.849 61.3101 336.715 61.5448C336.618 61.7138 336.475 61.8515 336.303 61.9414C336.13 62.0313 335.935 62.0696 335.742 62.0518ZM163.544 59.1923C163.323 59.1901 163.108 59.1155 162.933 58.9799C162.758 58.8444 162.633 58.6553 162.575 58.4416C162.518 58.2279 162.532 58.0012 162.615 57.7962C162.699 57.5913 162.847 57.4192 163.037 57.3063L168.229 54.3048C168.344 54.2214 168.474 54.163 168.613 54.1333C168.752 54.1037 168.895 54.1034 169.034 54.1327C169.173 54.1619 169.304 54.22 169.419 54.3031C169.534 54.3863 169.63 54.4926 169.702 54.6152C169.773 54.7379 169.818 54.8742 169.833 55.0152C169.849 55.1562 169.834 55.2989 169.791 55.4341C169.748 55.5692 169.676 55.6937 169.582 55.7997C169.488 55.9056 169.372 55.9905 169.243 56.0489L164.051 59.0503C163.899 59.1443 163.723 59.1935 163.544 59.1923ZM325.318 56.0286C325.139 56.0299 324.963 55.9807 324.811 55.8867L319.599 52.8852C319.396 52.7376 319.255 52.5199 319.203 52.2743C319.151 52.0286 319.192 51.7725 319.318 51.5555C319.445 51.3385 319.647 51.176 319.886 51.0994C320.125 51.0229 320.384 51.0378 320.613 51.1412L325.825 54.1426C326.015 54.2555 326.163 54.4276 326.247 54.6326C326.33 54.8376 326.344 55.0642 326.287 55.2779C326.229 55.4916 326.103 55.6807 325.928 55.8162C325.753 55.9518 325.539 56.0264 325.318 56.0286ZM173.968 53.1894C173.791 53.1884 173.617 53.141 173.464 53.0521C173.311 52.9631 173.184 52.8357 173.096 52.6824C172.962 52.4477 172.925 52.1699 172.993 51.9084C173.061 51.6468 173.229 51.4224 173.461 51.2831L178.673 48.2817C178.787 48.2131 178.914 48.1681 179.045 48.1493C179.177 48.1305 179.311 48.1384 179.44 48.1724C179.568 48.2065 179.689 48.266 179.794 48.3475C179.899 48.4289 179.987 48.5307 180.052 48.6467C180.186 48.8814 180.223 49.1593 180.155 49.4208C180.086 49.6823 179.919 49.9067 179.687 50.046L174.475 53.0475C174.324 53.1436 174.147 53.1929 173.968 53.1894ZM314.934 50.0258C314.755 50.0293 314.579 49.9799 314.427 49.8838L309.215 46.8823C309.099 46.8158 308.998 46.727 308.916 46.6212C308.835 46.5153 308.775 46.3945 308.74 46.2655C308.705 46.1365 308.696 46.0019 308.713 45.8694C308.73 45.7369 308.774 45.609 308.84 45.4932C308.907 45.3773 308.995 45.2757 309.101 45.1942C309.207 45.1126 309.328 45.0527 309.457 45.0179C309.586 44.9831 309.721 44.9739 309.853 44.9911C309.986 45.0083 310.113 45.0514 310.229 45.118L315.441 48.1194C315.673 48.2587 315.841 48.4832 315.909 48.7447C315.977 49.0062 315.94 49.2841 315.806 49.5188C315.716 49.675 315.586 49.8044 315.429 49.8935C315.272 49.9826 315.094 50.0283 314.914 50.0258H314.934ZM184.372 47.1663C184.195 47.1652 184.021 47.1178 183.868 47.0289C183.715 46.94 183.588 46.8125 183.5 46.6593C183.367 46.4277 183.33 46.1529 183.399 45.8947C183.467 45.6365 183.634 45.4157 183.865 45.2802L189.077 42.2788C189.305 42.1754 189.564 42.1606 189.803 42.2371C190.042 42.3136 190.245 42.4761 190.371 42.6932C190.497 42.9102 190.538 43.1663 190.486 43.4119C190.435 43.6575 190.294 43.8752 190.091 44.0229L184.879 47.0446C184.717 47.1312 184.535 47.1732 184.351 47.1663H184.372ZM304.49 44.104C304.311 44.1052 304.135 44.056 303.983 43.962L298.771 40.9606C298.642 40.9022 298.526 40.8172 298.432 40.7113C298.337 40.6054 298.266 40.4809 298.223 40.3458C298.18 40.2107 298.165 40.0679 298.181 39.9269C298.196 39.7858 298.241 39.6496 298.312 39.5269C298.383 39.4043 298.48 39.2979 298.595 39.2148C298.71 39.1317 298.841 39.0736 298.98 39.0444C299.118 39.0151 299.262 39.0153 299.401 39.045C299.539 39.0746 299.67 39.1331 299.785 39.2165L304.997 42.218C305.187 42.3309 305.336 42.5029 305.419 42.7079C305.502 42.9129 305.516 43.1396 305.459 43.3533C305.401 43.567 305.276 43.756 305.101 43.8916C304.926 44.0271 304.711 44.1017 304.49 44.104ZM194.775 41.2648C194.554 41.2626 194.34 41.1879 194.165 41.0524C193.99 40.9169 193.864 40.7278 193.806 40.5141C193.749 40.3004 193.763 40.0737 193.846 39.8687C193.93 39.6637 194.078 39.4917 194.268 39.3788L199.48 36.357C199.714 36.2226 199.992 36.1866 200.253 36.2569C200.513 36.3273 200.735 36.4983 200.869 36.7322C201.004 36.9662 201.04 37.244 200.97 37.5045C200.899 37.765 200.728 37.9869 200.494 38.1214L195.282 41.1228C195.12 41.182 194.945 41.1961 194.775 41.1634V41.2648ZM294.147 38.1011C293.968 38.1072 293.791 38.0576 293.64 37.9592L288.428 34.9577C288.197 34.8184 288.029 34.594 287.961 34.3325C287.892 34.0709 287.929 33.7931 288.063 33.5584C288.199 33.3282 288.42 33.1607 288.678 33.0924C288.936 33.024 289.211 33.0603 289.442 33.1933L294.654 36.1948C294.886 36.3341 295.054 36.5585 295.122 36.8201C295.19 37.0816 295.153 37.3594 295.019 37.5941C294.916 37.7416 294.775 37.8588 294.611 37.9337C294.447 38.0085 294.266 38.0383 294.086 38.02L294.147 38.1011ZM205.26 35.2416C205.039 35.2394 204.824 35.1648 204.649 35.0292C204.474 34.8937 204.349 34.7046 204.291 34.4909C204.234 34.2772 204.248 34.0506 204.331 33.8456C204.415 33.6406 204.563 33.4685 204.753 33.3556L209.945 30.3542C210.059 30.2707 210.19 30.2123 210.329 30.1826C210.468 30.153 210.611 30.1528 210.75 30.182C210.889 30.2113 211.02 30.2693 211.135 30.3525C211.25 30.4356 211.346 30.5419 211.418 30.6646C211.489 30.7872 211.534 30.9235 211.549 31.0645C211.565 31.2056 211.55 31.3483 211.507 31.4834C211.464 31.6185 211.392 31.7431 211.298 31.849C211.204 31.9549 211.088 32.0398 210.959 32.0982L205.767 35.12C205.582 35.1739 205.387 35.1808 205.199 35.1402L205.26 35.2416ZM283.663 31.936C283.484 31.9372 283.308 31.888 283.156 31.794L277.944 28.7926C277.814 28.7342 277.699 28.6492 277.604 28.5433C277.51 28.4374 277.439 28.3129 277.395 28.1778C277.352 28.0427 277.338 27.8999 277.353 27.7589C277.368 27.6178 277.413 27.4816 277.485 27.3589C277.556 27.2363 277.652 27.1299 277.767 27.0468C277.882 26.9637 278.013 26.9056 278.152 26.8764C278.291 26.8471 278.434 26.8473 278.573 26.877C278.712 26.9066 278.843 26.9651 278.958 27.0485L284.169 30.05C284.36 30.1629 284.508 30.3349 284.591 30.5399C284.675 30.7449 284.689 30.9716 284.631 31.1853C284.574 31.399 284.448 31.588 284.273 31.7236C284.098 31.8591 283.884 31.9337 283.663 31.936ZM215.603 29.0968C215.382 29.0946 215.167 29.02 214.992 28.8844C214.817 28.7489 214.691 28.5598 214.634 28.3461C214.576 28.1324 214.591 27.9057 214.674 27.7007C214.757 27.4957 214.906 27.3237 215.096 27.2108L220.308 24.189C220.543 24.063 220.818 24.0327 221.075 24.1045C221.332 24.1763 221.551 24.3446 221.687 24.5744C221.755 24.6883 221.8 24.8149 221.819 24.9466C221.838 25.0784 221.83 25.2125 221.796 25.3411C221.762 25.4697 221.703 25.5902 221.621 25.6954C221.54 25.8005 221.438 25.8883 221.322 25.9534L216.11 28.9548C215.963 29.0653 215.786 29.1289 215.603 29.1374V29.0968ZM273.34 25.9737C273.161 25.9772 272.984 25.9278 272.833 25.8317L267.621 22.8303C267.505 22.7637 267.404 22.6749 267.322 22.5691C267.24 22.4633 267.181 22.3424 267.146 22.2134C267.111 22.0844 267.102 21.9498 267.119 21.8173C267.136 21.6848 267.179 21.5569 267.246 21.4411C267.312 21.3252 267.401 21.2237 267.507 21.1421C267.613 21.0606 267.734 21.0007 267.863 20.9658C267.992 20.931 268.126 20.9219 268.259 20.939C268.391 20.9562 268.519 20.9993 268.635 21.0659L273.847 24.0674C274.079 24.2067 274.246 24.4311 274.315 24.6926C274.383 24.9542 274.346 25.232 274.212 25.4667C274.124 25.6199 273.997 25.7474 273.844 25.8363C273.691 25.9253 273.517 25.9726 273.34 25.9737ZM226.088 23.1142C225.911 23.1131 225.737 23.0658 225.584 22.9768C225.431 22.8879 225.304 22.7604 225.216 22.6072C225.083 22.3756 225.046 22.1008 225.115 21.8426C225.183 21.5844 225.35 21.3636 225.581 21.2282L230.793 18.2267C231.021 18.1234 231.28 18.1085 231.519 18.185C231.758 18.2616 231.961 18.4241 232.087 18.6411C232.213 18.8581 232.254 19.1142 232.202 19.3598C232.151 19.6055 232.01 19.8232 231.807 19.9708L226.595 22.9925C226.415 23.0904 226.21 23.1327 226.006 23.1142H226.088ZM262.916 19.9505C262.74 19.9491 262.567 19.9075 262.409 19.8288L257.116 16.8071C256.913 16.6595 256.772 16.4418 256.72 16.1961C256.668 15.9505 256.71 15.6944 256.836 15.4774C256.962 15.2604 257.164 15.0979 257.403 15.0213C257.642 14.9448 257.901 14.9596 258.13 15.063L263.342 18.0645C263.532 18.1774 263.68 18.3495 263.764 18.5545C263.847 18.7595 263.861 18.9861 263.804 19.1998C263.746 19.4135 263.621 19.6026 263.446 19.7381C263.271 19.8737 263.056 19.9483 262.835 19.9505H262.916ZM236.552 17.1113C236.331 17.1091 236.116 17.0345 235.941 16.8989C235.766 16.7634 235.641 16.5743 235.583 16.3606C235.526 16.1469 235.54 15.9202 235.623 15.7153C235.707 15.5103 235.855 15.3382 236.045 15.2253L241.257 12.2036C241.491 12.0691 241.769 12.0331 242.029 12.1034C242.29 12.1738 242.512 12.3448 242.646 12.5787C242.781 12.8127 242.817 13.0905 242.746 13.351C242.676 13.6116 242.505 13.8335 242.271 13.9679L237.059 16.9694C236.874 17.0916 236.65 17.142 236.43 17.1113H236.552ZM252.553 13.9477C252.373 13.9537 252.196 13.9041 252.046 13.8057L248.213 11.656C248.213 11.656 247.787 11.656 247.159 11.656C246.887 11.6568 246.625 11.5547 246.426 11.3704C246.226 11.186 246.104 10.9331 246.084 10.6623C246.073 10.5354 246.087 10.4076 246.126 10.2865C246.165 10.1653 246.228 10.0532 246.312 9.95683C246.395 9.86042 246.496 9.78165 246.61 9.72517C246.725 9.6687 246.849 9.63565 246.976 9.62801H247.159C247.849 9.6053 248.538 9.71546 249.187 9.95249L252.959 12.1427C253.149 12.2556 253.297 12.4277 253.38 12.6327C253.464 12.8377 253.478 13.0643 253.42 13.278C253.363 13.4918 253.237 13.6808 253.062 13.8164C252.887 13.9519 252.673 14.0265 252.452 14.0288L252.553 13.9477Z" fill="white"/>
<path d="M403.436 104.173C403.256 104.176 403.078 104.13 402.921 104.041C402.764 103.952 402.634 103.823 402.544 103.666C402.476 103.551 402.432 103.423 402.415 103.291C402.398 103.158 402.407 103.024 402.443 102.895C402.479 102.766 402.541 102.646 402.624 102.542C402.708 102.437 402.811 102.351 402.929 102.287L404.024 101.638L402.929 100.989C402.696 100.857 402.524 100.638 402.452 100.38C402.379 100.121 402.413 99.8444 402.544 99.6104C402.683 99.3787 402.908 99.2108 403.169 99.1426C403.431 99.0744 403.709 99.1113 403.943 99.2453L407.999 101.638L403.943 104.031C403.791 104.125 403.615 104.175 403.436 104.173Z" fill="white"/>
<path d="M179.2 232.972C178.508 232.993 177.819 232.875 177.172 232.627L173.4 230.457C173.284 230.39 173.183 230.302 173.101 230.196C173.02 230.09 172.96 229.969 172.925 229.84C172.89 229.711 172.881 229.576 172.898 229.444C172.915 229.311 172.958 229.184 173.025 229.068C173.092 228.952 173.18 228.85 173.286 228.769C173.392 228.687 173.513 228.627 173.642 228.592C173.771 228.558 173.905 228.549 174.038 228.566C174.17 228.583 174.298 228.626 174.414 228.693L178.125 230.842C178.125 230.842 178.531 230.944 179.16 230.944C179.436 230.933 179.706 231.031 179.911 231.216C180.115 231.402 180.239 231.661 180.255 231.937C180.266 232.064 180.251 232.192 180.212 232.313C180.173 232.434 180.11 232.546 180.027 232.643C179.944 232.739 179.842 232.818 179.728 232.875C179.614 232.931 179.49 232.964 179.362 232.972H179.2ZM184.737 230.437C184.56 230.436 184.386 230.388 184.233 230.299C184.08 230.21 183.953 230.083 183.865 229.93C183.731 229.695 183.694 229.417 183.762 229.156C183.83 228.894 183.998 228.67 184.23 228.53L189.442 225.529C189.676 225.394 189.953 225.358 190.214 225.429C190.474 225.499 190.696 225.67 190.831 225.904C190.965 226.138 191.001 226.416 190.931 226.676C190.861 226.937 190.69 227.159 190.456 227.293L185.244 230.295C185.091 230.389 184.916 230.438 184.737 230.437ZM168.736 227.577C168.56 227.576 168.386 227.534 168.229 227.456L163.037 224.434C162.908 224.375 162.792 224.29 162.698 224.185C162.603 224.079 162.532 223.954 162.489 223.819C162.446 223.684 162.431 223.541 162.447 223.4C162.462 223.259 162.507 223.123 162.578 223C162.649 222.877 162.746 222.771 162.861 222.688C162.976 222.605 163.107 222.547 163.246 222.518C163.384 222.488 163.528 222.488 163.667 222.518C163.805 222.548 163.936 222.606 164.051 222.69L169.243 225.691C169.433 225.804 169.581 225.976 169.665 226.181C169.748 226.386 169.762 226.613 169.705 226.826C169.647 227.04 169.521 227.229 169.346 227.365C169.172 227.5 168.957 227.575 168.736 227.577ZM195.1 224.414C194.878 224.411 194.664 224.337 194.489 224.201C194.314 224.066 194.188 223.877 194.131 223.663C194.073 223.449 194.087 223.222 194.171 223.017C194.254 222.812 194.402 222.64 194.593 222.527L199.805 219.526C199.919 219.443 200.05 219.384 200.189 219.354C200.328 219.325 200.471 219.325 200.61 219.354C200.749 219.383 200.88 219.441 200.995 219.524C201.11 219.607 201.206 219.714 201.278 219.836C201.349 219.959 201.394 220.095 201.409 220.236C201.425 220.377 201.41 220.52 201.367 220.655C201.324 220.79 201.252 220.915 201.158 221.021C201.064 221.127 200.948 221.212 200.819 221.27L195.607 224.272C195.468 224.362 195.306 224.412 195.14 224.414H195.1ZM158.292 221.574C158.112 221.578 157.936 221.528 157.785 221.432L152.613 218.512C152.497 218.447 152.395 218.359 152.314 218.254C152.232 218.149 152.173 218.028 152.139 217.9C152.105 217.771 152.097 217.637 152.116 217.505C152.134 217.374 152.18 217.247 152.248 217.133C152.384 216.903 152.603 216.735 152.86 216.663C153.117 216.591 153.392 216.622 153.627 216.748L158.839 219.769C159.029 219.882 159.178 220.054 159.261 220.259C159.344 220.464 159.358 220.691 159.301 220.905C159.244 221.118 159.118 221.308 158.943 221.443C158.768 221.579 158.553 221.653 158.332 221.655L158.292 221.574ZM205.564 218.512C205.343 218.51 205.128 218.435 204.954 218.3C204.779 218.164 204.653 217.975 204.595 217.761C204.538 217.548 204.552 217.321 204.635 217.116C204.719 216.911 204.867 216.739 205.057 216.626L210.269 213.604C210.503 213.47 210.781 213.434 211.041 213.504C211.302 213.575 211.524 213.746 211.658 213.979C211.793 214.213 211.829 214.491 211.758 214.752C211.688 215.012 211.517 215.234 211.283 215.369L206.071 218.37C205.919 218.464 205.743 218.513 205.564 218.512ZM147.928 215.653C147.752 215.656 147.577 215.614 147.421 215.531L142.21 212.428C142.08 212.37 141.965 212.285 141.87 212.179C141.776 212.073 141.705 211.948 141.661 211.813C141.618 211.678 141.604 211.535 141.619 211.394C141.634 211.253 141.679 211.117 141.75 210.994C141.822 210.872 141.918 210.765 142.033 210.682C142.148 210.599 142.279 210.541 142.418 210.512C142.557 210.483 142.7 210.483 142.839 210.512C142.978 210.542 143.109 210.601 143.224 210.684L148.435 213.685C148.666 213.821 148.833 214.042 148.902 214.3C148.97 214.558 148.934 214.833 148.801 215.064C148.71 215.214 148.581 215.337 148.429 215.423C148.276 215.508 148.103 215.552 147.928 215.551V215.653ZM215.968 212.428C215.791 212.427 215.617 212.38 215.464 212.291C215.311 212.202 215.184 212.074 215.096 211.921C214.963 211.689 214.926 211.415 214.995 211.156C215.063 210.898 215.231 210.677 215.461 210.542L220.673 207.541C220.788 207.457 220.919 207.399 221.057 207.369C221.196 207.339 221.339 207.339 221.478 207.368C221.617 207.398 221.748 207.456 221.863 207.539C221.978 207.622 222.075 207.728 222.146 207.851C222.217 207.974 222.262 208.11 222.277 208.251C222.293 208.392 222.278 208.535 222.235 208.67C222.192 208.805 222.121 208.929 222.026 209.035C221.932 209.141 221.816 209.226 221.687 209.285L216.556 212.266C216.381 212.378 216.176 212.434 215.968 212.428ZM137.464 209.548C137.285 209.552 137.108 209.502 136.957 209.406L131.786 206.344C131.67 206.279 131.568 206.191 131.486 206.086C131.405 205.981 131.345 205.86 131.311 205.732C131.277 205.603 131.269 205.469 131.288 205.337C131.307 205.206 131.352 205.079 131.421 204.965C131.556 204.735 131.776 204.567 132.033 204.495C132.29 204.423 132.564 204.454 132.8 204.58L138.012 207.601C138.202 207.714 138.35 207.886 138.433 208.091C138.517 208.296 138.531 208.523 138.473 208.737C138.416 208.95 138.29 209.14 138.115 209.275C137.94 209.411 137.726 209.485 137.505 209.487L137.464 209.548ZM226.392 206.344C226.171 206.342 225.956 206.267 225.781 206.132C225.606 205.996 225.48 205.807 225.423 205.593C225.365 205.38 225.38 205.153 225.463 204.948C225.546 204.743 225.694 204.571 225.885 204.458L231.097 201.436C231.331 201.302 231.609 201.266 231.869 201.336C232.13 201.407 232.351 201.578 232.486 201.811C232.62 202.045 232.656 202.323 232.586 202.584C232.516 202.844 232.345 203.066 232.111 203.201L226.899 206.344C226.733 206.39 226.558 206.39 226.392 206.344ZM127.02 203.485C126.844 203.483 126.67 203.442 126.513 203.363L121.321 200.341C121.192 200.283 121.076 200.198 120.982 200.092C120.887 199.986 120.816 199.861 120.773 199.726C120.73 199.591 120.715 199.448 120.731 199.307C120.746 199.166 120.791 199.03 120.862 198.907C120.933 198.785 121.03 198.679 121.145 198.595C121.26 198.512 121.391 198.454 121.53 198.425C121.668 198.396 121.812 198.396 121.951 198.425C122.089 198.455 122.22 198.514 122.335 198.597L127.527 201.599C127.717 201.711 127.865 201.884 127.949 202.088C128.032 202.293 128.046 202.52 127.989 202.734C127.931 202.948 127.805 203.137 127.631 203.272C127.456 203.408 127.241 203.482 127.02 203.485ZM236.836 200.361C236.615 200.359 236.4 200.285 236.225 200.149C236.05 200.014 235.925 199.824 235.867 199.611C235.81 199.397 235.824 199.17 235.907 198.965C235.99 198.76 236.139 198.588 236.329 198.475L241.521 195.474C241.635 195.391 241.766 195.332 241.905 195.302C242.044 195.273 242.187 195.273 242.326 195.302C242.465 195.331 242.596 195.389 242.711 195.472C242.826 195.555 242.922 195.662 242.994 195.784C243.065 195.907 243.11 196.043 243.125 196.184C243.14 196.325 243.126 196.468 243.083 196.603C243.04 196.738 242.968 196.863 242.874 196.969C242.78 197.075 242.664 197.16 242.535 197.218L237.323 200.26C237.17 200.329 237.004 200.363 236.836 200.361ZM116.697 197.522C116.518 197.526 116.342 197.476 116.19 197.38L110.978 194.379C110.862 194.314 110.761 194.226 110.679 194.121C110.598 194.016 110.538 193.895 110.504 193.767C110.47 193.638 110.462 193.504 110.481 193.372C110.5 193.24 110.545 193.114 110.613 193C110.749 192.77 110.968 192.602 111.225 192.53C111.482 192.458 111.757 192.488 111.992 192.614L117.184 195.636C117.374 195.749 117.522 195.921 117.606 196.126C117.689 196.331 117.703 196.558 117.646 196.771C117.588 196.985 117.463 197.174 117.288 197.31C117.113 197.445 116.898 197.52 116.677 197.522H116.697ZM247.24 194.359C247.018 194.356 246.804 194.282 246.629 194.146C246.454 194.011 246.328 193.822 246.271 193.608C246.213 193.394 246.227 193.167 246.311 192.962C246.394 192.758 246.542 192.585 246.733 192.473L251.945 189.451C252.179 189.316 252.456 189.28 252.717 189.351C252.977 189.421 253.199 189.592 253.334 189.826C253.468 190.06 253.504 190.338 253.434 190.598C253.364 190.859 253.193 191.081 252.959 191.215L247.726 194.176C247.578 194.284 247.402 194.348 247.219 194.359H247.24ZM106.273 191.499C106.097 191.498 105.924 191.456 105.766 191.377L100.575 188.356C100.445 188.297 100.33 188.212 100.235 188.106C100.141 188 100.07 187.876 100.027 187.741C99.9833 187.606 99.9689 187.463 99.9842 187.322C99.9996 187.181 100.044 187.045 100.116 186.922C100.187 186.799 100.283 186.693 100.398 186.61C100.513 186.527 100.644 186.469 100.783 186.439C100.922 186.41 101.065 186.41 101.204 186.44C101.343 186.47 101.474 186.528 101.589 186.612L106.78 189.613C107.014 189.745 107.186 189.964 107.258 190.223C107.33 190.481 107.297 190.758 107.166 190.992C107.072 191.15 106.938 191.28 106.778 191.369C106.618 191.458 106.436 191.503 106.253 191.499H106.273ZM257.643 188.335C257.466 188.334 257.293 188.287 257.14 188.198C256.987 188.109 256.86 187.982 256.771 187.828C256.638 187.597 256.602 187.322 256.67 187.064C256.739 186.806 256.906 186.585 257.136 186.449L262.348 183.448C262.577 183.345 262.836 183.33 263.075 183.406C263.314 183.483 263.516 183.645 263.642 183.862C263.769 184.079 263.81 184.335 263.758 184.581C263.706 184.827 263.565 185.044 263.362 185.192L258.15 188.214C257.988 188.3 257.806 188.342 257.623 188.335H257.643ZM95.8697 185.496C95.6904 185.5 95.5141 185.45 95.3627 185.354L90.1507 182.353C90.0347 182.288 89.933 182.2 89.8515 182.095C89.77 181.99 89.7105 181.869 89.6765 181.74C89.6424 181.612 89.6345 181.478 89.6533 181.346C89.6721 181.214 89.7171 181.088 89.7857 180.974C89.9215 180.744 90.1408 180.576 90.3978 180.504C90.6548 180.432 90.9296 180.462 91.1647 180.588L96.3767 183.61C96.567 183.723 96.7152 183.895 96.7986 184.1C96.882 184.305 96.8961 184.532 96.8386 184.745C96.7812 184.959 96.6554 185.148 96.4804 185.284C96.3055 185.419 96.091 185.494 95.8697 185.496ZM268.067 182.333C267.846 182.33 267.631 182.256 267.456 182.12C267.282 181.985 267.156 181.796 267.098 181.582C267.041 181.368 267.055 181.141 267.138 180.936C267.222 180.731 267.37 180.559 267.56 180.446L272.772 177.425C273.006 177.29 273.284 177.254 273.544 177.325C273.805 177.395 274.027 177.566 274.161 177.8C274.296 178.034 274.332 178.312 274.261 178.572C274.191 178.833 274.02 179.055 273.786 179.189L268.574 182.191C268.416 182.288 268.233 182.338 268.047 182.333H268.067ZM85.5472 179.473C85.3711 179.472 85.1977 179.43 85.0402 179.351L79.8485 176.35C79.6173 176.21 79.4485 175.987 79.3768 175.727C79.3051 175.467 79.3361 175.189 79.4632 174.951C79.6025 174.719 79.8269 174.551 80.0885 174.483C80.35 174.415 80.6278 174.451 80.8625 174.586L86.0542 177.587C86.2445 177.7 86.3927 177.872 86.4761 178.077C86.5595 178.282 86.5735 178.509 86.5161 178.722C86.4586 178.936 86.3328 179.125 86.1579 179.261C85.983 179.396 85.7685 179.471 85.5472 179.473ZM278.592 176.309C278.371 176.307 278.157 176.232 277.982 176.097C277.807 175.961 277.681 175.772 277.624 175.559C277.566 175.345 277.58 175.118 277.664 174.913C277.747 174.708 277.895 174.536 278.085 174.423L283.277 171.422C283.512 171.288 283.79 171.251 284.051 171.319C284.313 171.387 284.537 171.555 284.676 171.787C284.804 172.025 284.835 172.303 284.763 172.563C284.691 172.824 284.522 173.047 284.291 173.186L279.1 176.188C278.906 176.287 278.688 176.329 278.471 176.309H278.592ZM75.1436 173.47C74.9643 173.474 74.7879 173.424 74.6366 173.328L69.4246 170.327C69.2216 170.179 69.0805 169.961 69.0288 169.716C68.977 169.47 69.0182 169.214 69.1444 168.997C69.2706 168.78 69.4727 168.618 69.7118 168.541C69.9509 168.464 70.2098 168.479 70.4386 168.583L75.6506 171.584C75.8409 171.697 75.9891 171.869 76.0724 172.074C76.1558 172.279 76.1699 172.506 76.1124 172.719C76.055 172.933 75.9292 173.122 75.7543 173.258C75.5793 173.393 75.3648 173.468 75.1436 173.47ZM288.996 170.306C288.775 170.304 288.56 170.23 288.385 170.094C288.211 169.959 288.085 169.769 288.027 169.556C287.97 169.342 287.984 169.115 288.067 168.91C288.151 168.705 288.299 168.533 288.489 168.42L293.701 165.419C293.93 165.316 294.189 165.301 294.428 165.377C294.667 165.454 294.869 165.616 294.995 165.833C295.122 166.05 295.163 166.306 295.111 166.552C295.059 166.798 294.918 167.015 294.715 167.163L289.503 170.165C289.316 170.283 289.094 170.334 288.874 170.306H288.996ZM64.7196 167.467C64.5422 167.458 64.369 167.41 64.2126 167.325L59.021 164.324C58.9051 164.257 58.8035 164.169 58.722 164.063C58.6404 163.957 58.5805 163.836 58.5457 163.707C58.5108 163.578 58.5017 163.443 58.5189 163.311C58.5361 163.178 58.5792 163.051 58.6458 162.935C58.7124 162.819 58.8011 162.717 58.9069 162.636C59.0128 162.554 59.1337 162.494 59.2627 162.459C59.3917 162.425 59.5263 162.415 59.6588 162.433C59.7913 162.45 59.9191 162.493 60.035 162.56L65.2266 165.561C65.4273 165.669 65.5857 165.842 65.6763 166.051C65.7668 166.26 65.7842 166.494 65.7256 166.714C65.667 166.935 65.5358 167.129 65.3533 167.265C65.1708 167.402 64.9476 167.473 64.7196 167.467ZM299.4 164.304C299.223 164.302 299.049 164.255 298.896 164.166C298.743 164.077 298.616 163.95 298.528 163.797C298.394 163.562 298.357 163.284 298.425 163.023C298.493 162.761 298.661 162.537 298.893 162.397L304.105 159.396C304.219 159.327 304.345 159.282 304.477 159.263C304.609 159.245 304.743 159.253 304.871 159.287C305 159.321 305.121 159.38 305.226 159.462C305.331 159.543 305.419 159.645 305.484 159.761C305.618 159.996 305.655 160.273 305.586 160.535C305.518 160.796 305.35 161.021 305.119 161.16L299.704 164.162C299.574 164.239 299.429 164.287 299.278 164.304H299.4ZM54.1943 161.444C54.015 161.448 53.8387 161.398 53.6873 161.302L48.4754 158.301C48.2723 158.153 48.1313 157.935 48.0795 157.69C48.0278 157.444 48.069 157.188 48.1951 156.971C48.3213 156.754 48.5235 156.591 48.7626 156.515C49.0016 156.438 49.2606 156.453 49.4894 156.557L54.7013 159.558C54.8916 159.671 55.0398 159.843 55.1232 160.048C55.2066 160.253 55.2207 160.48 55.1632 160.693C55.1058 160.907 54.98 161.096 54.805 161.232C54.6301 161.367 54.4156 161.442 54.1943 161.444ZM309.722 158.28C309.501 158.278 309.287 158.204 309.112 158.068C308.937 157.933 308.811 157.743 308.753 157.53C308.696 157.316 308.71 157.089 308.793 156.884C308.877 156.679 309.025 156.507 309.215 156.394L314.427 153.393C314.656 153.29 314.915 153.275 315.154 153.351C315.393 153.428 315.595 153.59 315.721 153.807C315.848 154.024 315.889 154.28 315.837 154.526C315.785 154.772 315.644 154.989 315.441 155.137L310.229 158.138C310.072 158.239 309.888 158.288 309.702 158.28H309.722ZM43.7704 155.441C43.593 155.432 43.4198 155.384 43.2634 155.299L38.092 152.298C37.8608 152.158 37.692 151.935 37.6203 151.675C37.5486 151.415 37.5795 151.137 37.7067 150.899C37.846 150.667 38.0704 150.499 38.3319 150.431C38.5935 150.363 38.8713 150.399 39.106 150.533L44.2774 153.616C44.5125 153.752 44.6846 153.975 44.7567 154.237C44.8288 154.499 44.7951 154.778 44.6627 155.015C44.5627 155.157 44.4282 155.27 44.272 155.344C44.1158 155.419 43.9431 155.452 43.7704 155.441ZM320.126 152.278C319.946 152.28 319.768 152.234 319.611 152.145C319.454 152.056 319.324 151.927 319.234 151.771C319.101 151.533 319.068 151.254 319.14 150.992C319.212 150.73 319.384 150.507 319.619 150.371L324.811 147.37C325.045 147.236 325.323 147.199 325.585 147.267C325.846 147.335 326.071 147.503 326.21 147.735C326.337 147.973 326.368 148.251 326.296 148.511C326.225 148.772 326.056 148.995 325.825 149.134L320.633 152.136C320.477 152.22 320.303 152.268 320.126 152.278ZM33.3668 149.418C33.1875 149.422 33.0111 149.372 32.8598 149.276L27.6478 146.275C27.4448 146.127 27.3038 145.909 27.252 145.664C27.2002 145.418 27.2414 145.162 27.3676 144.945C27.4938 144.728 27.6959 144.565 27.935 144.489C28.1741 144.412 28.433 144.427 28.6618 144.531L33.8738 147.532C34.0641 147.645 34.2123 147.817 34.2957 148.022C34.3791 148.227 34.3931 148.454 34.3356 148.667C34.2782 148.881 34.1524 149.07 33.9775 149.206C33.8025 149.341 33.588 149.416 33.3668 149.418ZM330.53 146.254C330.308 146.252 330.094 146.178 329.919 146.042C329.744 145.906 329.618 145.717 329.561 145.504C329.503 145.29 329.517 145.063 329.601 144.858C329.684 144.653 329.832 144.481 330.023 144.368L335.235 141.367C335.349 141.283 335.48 141.225 335.619 141.195C335.758 141.166 335.901 141.166 336.04 141.195C336.179 141.224 336.31 141.282 336.425 141.365C336.54 141.448 336.636 141.555 336.708 141.677C336.779 141.8 336.824 141.936 336.839 142.077C336.854 142.218 336.84 142.361 336.797 142.496C336.753 142.631 336.682 142.756 336.588 142.862C336.493 142.968 336.378 143.053 336.249 143.111L331.037 146.112C330.885 146.208 330.709 146.258 330.53 146.254ZM340.933 140.17C340.756 140.169 340.583 140.122 340.43 140.033C340.277 139.944 340.15 139.817 340.061 139.663C339.927 139.429 339.89 139.151 339.958 138.889C340.027 138.628 340.195 138.403 340.426 138.264L345.638 135.263C345.873 135.129 346.151 135.092 346.412 135.16C346.674 135.228 346.898 135.396 347.038 135.628C347.165 135.866 347.196 136.144 347.124 136.404C347.052 136.664 346.883 136.887 346.652 137.027L341.44 140.028C341.294 140.147 341.119 140.224 340.933 140.252V140.17ZM351.357 134.086C351.136 134.084 350.921 134.01 350.746 133.874C350.572 133.738 350.446 133.549 350.388 133.336C350.331 133.122 350.345 132.895 350.428 132.69C350.512 132.485 350.66 132.313 350.85 132.2L356.062 129.199C356.291 129.096 356.55 129.081 356.789 129.157C357.028 129.234 357.23 129.396 357.356 129.613C357.483 129.83 357.524 130.086 357.472 130.332C357.42 130.578 357.279 130.795 357.076 130.943L351.864 133.944C351.731 134.092 351.553 134.191 351.357 134.228V134.086ZM361.781 128.002C361.601 128.005 361.423 127.959 361.266 127.87C361.109 127.781 360.979 127.652 360.889 127.495C360.756 127.258 360.723 126.979 360.795 126.717C360.867 126.455 361.039 126.232 361.274 126.096L366.466 123.095C366.582 123.028 366.709 122.985 366.842 122.968C366.974 122.951 367.109 122.96 367.238 122.995C367.367 123.029 367.488 123.089 367.594 123.171C367.7 123.252 367.788 123.354 367.855 123.47C367.922 123.586 367.965 123.713 367.982 123.846C367.999 123.978 367.99 124.113 367.955 124.242C367.92 124.371 367.86 124.492 367.779 124.598C367.697 124.704 367.596 124.792 367.48 124.859L362.288 127.86C362.165 128.036 361.986 128.164 361.781 128.225V128.002ZM372.185 121.918C371.963 121.916 371.749 121.842 371.574 121.706C371.399 121.57 371.273 121.381 371.216 121.168C371.158 120.954 371.172 120.727 371.256 120.522C371.339 120.317 371.487 120.145 371.678 120.032L376.89 117.031C377.004 116.947 377.135 116.889 377.274 116.859C377.413 116.83 377.556 116.83 377.695 116.859C377.834 116.888 377.965 116.946 378.08 117.029C378.195 117.112 378.291 117.219 378.363 117.341C378.434 117.464 378.479 117.6 378.494 117.741C378.509 117.882 378.495 118.025 378.452 118.16C378.409 118.295 378.337 118.42 378.243 118.526C378.149 118.632 378.033 118.717 377.904 118.775L372.712 122.081C372.549 122.165 372.368 122.207 372.185 122.202V121.918ZM382.609 115.834C382.429 115.835 382.252 115.788 382.095 115.699C381.939 115.61 381.808 115.482 381.716 115.327C381.648 115.212 381.605 115.084 381.587 114.952C381.57 114.819 381.58 114.685 381.616 114.556C381.652 114.427 381.713 114.307 381.797 114.203C381.88 114.098 381.984 114.012 382.102 113.948L387.293 110.927C387.409 110.86 387.537 110.817 387.67 110.8C387.802 110.783 387.937 110.792 388.066 110.827C388.195 110.861 388.315 110.921 388.421 111.003C388.527 111.084 388.616 111.186 388.682 111.302C388.749 111.418 388.792 111.545 388.809 111.678C388.827 111.81 388.817 111.945 388.783 112.074C388.748 112.203 388.688 112.324 388.606 112.43C388.525 112.536 388.423 112.624 388.307 112.691L383.116 115.692C383.019 115.921 382.837 116.103 382.609 116.199V115.834ZM393.012 109.75C392.791 109.748 392.577 109.674 392.402 109.538C392.227 109.402 392.101 109.213 392.043 109C391.986 108.786 392 108.559 392.083 108.354C392.167 108.149 392.315 107.977 392.505 107.864L397.717 104.863C397.946 104.76 398.205 104.745 398.444 104.821C398.683 104.898 398.885 105.06 399.011 105.277C399.138 105.494 399.179 105.75 399.127 105.996C399.075 106.242 398.934 106.459 398.731 106.607L393.519 109.629C393.415 109.868 393.227 110.063 392.992 110.176L393.012 109.75Z" fill="white"/>
<path opacity="0.1" d="M0.0467224 186.064L175.732 287.464C176.795 288.082 178.002 288.408 179.231 288.408C180.46 288.408 181.667 288.082 182.729 287.464L426.393 146.822V156.334L182.729 297.016C181.667 297.634 180.46 297.96 179.231 297.96C178.002 297.96 176.795 297.634 175.732 297.016L0.0467224 195.616V186.064Z" fill="black"/>
<path d="M147.969 226.239C147.969 226.137 147.969 226.056 147.969 225.955C157.873 221.752 168.522 219.587 179.281 219.587C190.04 219.587 200.689 221.752 210.594 225.955C210.594 226.056 210.594 226.137 210.594 226.239L185.872 240.435C183.861 241.515 181.605 242.059 179.322 242.017C177.019 242.062 174.744 241.517 172.711 240.435L148.05 226.239" fill="#5F85DB"/>
<path d="M419.762 97.8663L398.691 85.6983C383.643 94.4795 383.683 108.655 398.853 117.396H398.975L419.762 105.41C423.412 103.382 423.412 99.9754 419.762 97.8663Z" fill="#5F85DB"/>
<path d="M6.67828 137.027L27.7492 124.859C42.797 133.64 42.7564 147.816 27.587 156.557H27.4653L6.67828 144.571C3.04816 142.543 3.04816 139.136 6.67828 137.027Z" fill="#5F85DB"/>
<path d="M276.706 15.2456L253.75 1.98245C251.709 0.952143 249.455 0.415405 247.169 0.415405C244.883 0.415405 242.629 0.952143 240.588 1.98245L217.955 15.063C218.584 15.4889 219.233 15.9148 219.983 16.3204C235.214 25.1017 259.874 25.1017 275.104 16.3204C275.632 15.9757 276.159 15.712 276.706 15.2456Z" fill="#5F85DB"/>
<path d="M210.472 226.239C208.18 245.302 195.505 262.094 179.2 273.491V242.098C181.483 242.14 183.739 241.596 185.751 240.516L210.472 226.239Z" fill="#5F85DB"/>
<path d="M419.762 105.451L398.853 117.497C398.853 134.979 411.203 139.988 426.393 131.247V109.223C426.269 106.939 425.607 104.716 424.461 102.736C423.316 100.755 421.72 99.0731 419.802 97.8257L418.322 96.9537L419.802 97.8054C423.412 99.9348 423.412 103.342 419.762 105.451Z" fill="#5F85DB"/>
<path d="M426.353 196.346V171.868C411.163 180.67 398.853 202.004 398.853 219.567C398.843 219.681 398.843 219.797 398.853 219.911L420.532 207.317C422.246 206.026 423.656 204.374 424.661 202.478C425.667 200.583 426.244 198.489 426.353 196.346Z" fill="#5F85DB"/>
<path d="M206.781 330.701C206.781 313.22 194.41 306.142 179.241 314.903V344.39C181.524 344.433 183.779 343.888 185.791 342.808L206.781 330.701Z" fill="#5F85DB"/>
<g opacity="0.15">
<path opacity="0.15" d="M210.472 226.239C208.18 245.302 195.505 262.094 179.2 273.491V242.098C181.483 242.14 183.739 241.596 185.751 240.516L210.472 226.239Z" fill="black"/>
<path opacity="0.15" d="M419.762 105.451L398.853 117.497C398.853 134.979 411.203 139.988 426.393 131.247V109.223C426.269 106.939 425.607 104.716 424.462 102.736C423.316 100.755 421.72 99.0731 419.802 97.8257L418.322 96.9537L419.802 97.8054C423.412 99.9348 423.412 103.342 419.762 105.451Z" fill="black"/>
<path opacity="0.15" d="M426.353 196.346V171.868C411.163 180.67 398.853 202.004 398.853 219.567C398.843 219.681 398.843 219.797 398.853 219.911L420.532 207.317C422.246 206.026 423.656 204.374 424.661 202.478C425.667 200.583 426.244 198.489 426.353 196.346Z" fill="black"/>
<path opacity="0.15" d="M206.781 330.701C206.781 313.22 194.41 306.142 179.241 314.903V344.39C181.524 344.433 183.779 343.888 185.791 342.808L206.781 330.701Z" fill="black"/>
</g>
<path d="M179.241 242.098V273.491C162.895 262.013 150.261 245.261 147.969 226.239L172.69 240.435C174.695 241.543 176.951 242.116 179.241 242.098Z" fill="#5F85DB"/>
<path d="M151.66 330.701L172.67 342.869C174.682 343.949 176.938 344.494 179.221 344.451V314.903C164.051 306.142 151.66 313.22 151.66 330.701Z" fill="#5F85DB"/>
<path d="M0.837641 211.82L0.0467224 211.414V235.608C0.172076 237.733 0.757447 239.806 1.76237 241.683C2.7673 243.56 4.16781 245.196 5.86708 246.478L28.3982 259.579C28.3982 241.976 16.0476 220.54 0.837641 211.82Z" fill="#5F85DB"/>
<path d="M6.67828 144.612L27.587 156.658C27.587 174.139 15.2364 181.217 0.0467224 172.456V148.384C0.188234 146.097 0.865937 143.875 2.02503 141.899C3.18412 139.923 4.79207 138.247 6.71885 137.007C3.08872 139.096 3.04816 142.503 6.67828 144.612Z" fill="#5F85DB"/>
<g opacity="0.3">
<path opacity="0.3" d="M179.241 242.098V273.491C162.895 262.013 150.261 245.261 147.969 226.239L172.69 240.435C174.695 241.543 176.951 242.116 179.241 242.098Z" fill="black"/>
<path opacity="0.3" d="M151.66 330.701L172.67 342.869C174.682 343.949 176.938 344.494 179.221 344.451V314.903C164.051 306.142 151.66 313.22 151.66 330.701Z" fill="black"/>
<path opacity="0.3" d="M0.837641 211.82L0.0467224 211.414V235.608C0.172076 237.733 0.757447 239.806 1.76237 241.683C2.7673 243.56 4.16781 245.196 5.86708 246.478L28.3982 259.579C28.3982 241.976 16.0476 220.54 0.837641 211.82Z" fill="black"/>
<path opacity="0.3" d="M6.67828 144.612L27.587 156.658C27.587 174.139 15.2364 181.217 0.0467224 172.456V148.384C0.188234 146.097 0.865937 143.875 2.02503 141.899C3.18412 139.923 4.79207 138.247 6.71885 137.007C3.08872 139.096 3.04816 142.503 6.67828 144.612Z" fill="black"/>
</g>
<path d="M243.386 242.97L230.428 250.453C229.915 250.786 229.489 251.235 229.182 251.763C228.876 252.292 228.698 252.885 228.663 253.495V277.973C228.693 278.584 228.869 279.179 229.176 279.708C229.483 280.237 229.912 280.686 230.428 281.015L231.584 281.705C232.134 281.97 232.737 282.108 233.348 282.108C233.959 282.108 234.562 281.97 235.112 281.705L248.071 274.221C248.581 273.887 249.004 273.437 249.307 272.909C249.61 272.38 249.784 271.788 249.815 271.179V246.701C249.789 246.092 249.617 245.497 249.314 244.968C249.01 244.438 248.584 243.99 248.071 243.659L246.895 242.97C246.347 242.707 245.748 242.571 245.141 242.571C244.533 242.571 243.934 242.707 243.386 242.97Z" fill="#5F85DB"/>
<path opacity="0.3" d="M243.386 242.97L230.428 250.453C229.915 250.786 229.489 251.235 229.182 251.763C228.876 252.292 228.698 252.885 228.663 253.495V277.973C228.693 278.584 228.869 279.179 229.176 279.708C229.483 280.237 229.912 280.686 230.428 281.015L231.584 281.705C232.134 281.97 232.737 282.108 233.348 282.108C233.959 282.108 234.562 281.97 235.112 281.705L248.071 274.221C248.581 273.887 249.004 273.437 249.307 272.909C249.61 272.38 249.784 271.788 249.815 271.179V246.701C249.789 246.092 249.617 245.497 249.314 244.968C249.01 244.438 248.584 243.99 248.071 243.659L246.895 242.97C246.347 242.707 245.748 242.571 245.141 242.571C244.533 242.571 243.934 242.707 243.386 242.97Z" fill="black"/>
<path opacity="0.1" d="M234.808 281.887C234.307 282.075 233.772 282.156 233.237 282.124C232.703 282.093 232.181 281.95 231.705 281.705L230.529 281.035C230.017 280.702 229.59 280.253 229.284 279.725C228.977 279.196 228.799 278.603 228.765 277.993V253.515C228.793 252.884 228.981 252.27 229.312 251.731L233.977 254.468C233.652 254.994 233.47 255.595 233.449 256.213V280.691C233.348 281.664 233.916 282.13 234.808 281.887Z" fill="black"/>
<path d="M233.348 256.213V280.69C233.348 281.806 234.139 282.252 235.112 281.704L248.071 274.221C248.581 273.887 249.004 273.437 249.307 272.909C249.61 272.38 249.784 271.788 249.815 271.179V246.701C249.815 245.566 249.045 245.119 248.071 245.687L235.112 253.171C234.597 253.5 234.168 253.948 233.861 254.477C233.554 255.006 233.378 255.601 233.348 256.213Z" fill="#5F85DB"/>
<path opacity="0.2" d="M233.348 256.213V280.69C233.348 281.806 234.139 282.252 235.112 281.704L248.071 274.221C248.581 273.887 249.004 273.437 249.307 272.909C249.61 272.38 249.784 271.788 249.815 271.179V246.701C249.815 245.566 249.045 245.119 248.071 245.687L235.112 253.171C234.597 253.5 234.168 253.948 233.861 254.477C233.554 255.006 233.378 255.601 233.348 256.213Z" fill="black"/>
<path d="M375.186 166.859L362.227 174.342C361.715 174.675 361.289 175.124 360.982 175.653C360.676 176.181 360.498 176.774 360.463 177.384V201.882C360.498 202.492 360.676 203.085 360.982 203.614C361.289 204.142 361.715 204.591 362.227 204.924L363.403 205.594C363.946 205.873 364.547 206.019 365.158 206.019C365.768 206.019 366.369 205.873 366.912 205.594L379.871 198.11C380.383 197.777 380.809 197.328 381.116 196.8C381.422 196.271 381.6 195.678 381.635 195.068V170.59C381.602 169.98 381.425 169.386 381.118 168.858C380.811 168.329 380.384 167.88 379.871 167.548L378.695 166.859C378.147 166.596 377.548 166.46 376.94 166.46C376.333 166.46 375.734 166.596 375.186 166.859Z" fill="#5F85DB"/>
<path opacity="0.3" d="M375.186 166.859L362.227 174.342C361.715 174.675 361.289 175.124 360.982 175.653C360.676 176.181 360.498 176.774 360.463 177.384V201.882C360.498 202.492 360.676 203.085 360.982 203.614C361.289 204.142 361.715 204.591 362.227 204.924L363.403 205.594C363.946 205.873 364.547 206.019 365.158 206.019C365.768 206.019 366.369 205.873 366.912 205.594L379.871 198.11C380.383 197.777 380.809 197.328 381.116 196.8C381.422 196.271 381.6 195.678 381.635 195.068V170.59C381.602 169.98 381.425 169.386 381.118 168.858C380.811 168.329 380.384 167.88 379.871 167.548L378.695 166.859C378.147 166.596 377.548 166.46 376.94 166.46C376.333 166.46 375.734 166.596 375.186 166.859Z" fill="black"/>
<path opacity="0.1" d="M366.506 205.776C366.005 205.964 365.47 206.045 364.936 206.014C364.401 205.982 363.879 205.839 363.403 205.594L362.227 204.924C361.718 204.59 361.294 204.141 360.991 203.612C360.688 203.084 360.514 202.491 360.483 201.882V177.404C360.487 176.787 360.663 176.183 360.99 175.66L365.675 178.358C365.356 178.877 365.181 179.472 365.168 180.081V204.559C365.168 205.553 365.736 206.02 366.506 205.776Z" fill="black"/>
<path d="M365.148 180.102V204.58C365.148 205.695 365.938 206.161 366.912 205.594L379.871 198.11C380.383 197.777 380.809 197.328 381.116 196.8C381.422 196.271 381.6 195.678 381.635 195.068V170.59C381.635 169.475 380.844 169.008 379.871 169.576L366.912 177.06C366.399 177.392 365.971 177.84 365.665 178.369C365.358 178.898 365.181 179.491 365.148 180.102Z" fill="#5F85DB"/>
<path opacity="0.2" d="M365.148 180.102V204.58C365.148 205.695 365.938 206.161 366.912 205.594L379.871 198.11C380.383 197.777 380.809 197.328 381.116 196.8C381.422 196.271 381.6 195.678 381.635 195.068V170.59C381.635 169.475 380.844 169.008 379.871 169.576L366.912 177.06C366.399 177.392 365.971 177.84 365.665 178.369C365.358 178.898 365.181 179.491 365.148 180.102Z" fill="black"/>
<path d="M281.067 254.651V264.548C281.052 264.954 280.94 265.351 280.738 265.704C280.537 266.057 280.253 266.356 279.911 266.576L265.877 274.688C265.515 274.868 265.116 274.962 264.711 274.962C264.306 274.962 263.907 274.868 263.545 274.688L262.774 274.241C262.433 274.021 262.15 273.721 261.949 273.368C261.748 273.015 261.634 272.619 261.618 272.213V262.297C261.639 261.892 261.755 261.497 261.955 261.145C262.156 260.793 262.436 260.493 262.774 260.269L276.808 252.156C277.17 251.976 277.569 251.882 277.974 251.882C278.379 251.882 278.778 251.976 279.14 252.156L279.911 252.603C280.252 252.828 280.535 253.131 280.736 253.487C280.937 253.843 281.05 254.242 281.067 254.651Z" fill="#263238"/>
<path d="M279.911 266.677L265.877 274.789C265.228 275.154 264.721 274.789 264.721 274.12V264.203C264.737 263.797 264.85 263.401 265.052 263.048C265.253 262.695 265.536 262.396 265.877 262.175L279.911 254.063C280.56 253.698 281.067 254.063 281.067 254.752V264.649C281.052 265.055 280.94 265.452 280.738 265.805C280.537 266.158 280.253 266.458 279.911 266.677Z" fill="#37474F"/>
<path d="M352.229 213.584V223.481C352.205 223.885 352.088 224.278 351.888 224.63C351.687 224.981 351.409 225.282 351.073 225.509L337.04 233.621C336.677 233.801 336.278 233.895 335.873 233.895C335.469 233.895 335.07 233.801 334.707 233.621L333.937 233.175C333.596 232.954 333.313 232.654 333.111 232.301C332.91 231.948 332.797 231.552 332.781 231.146V221.23C332.797 220.824 332.91 220.427 333.111 220.075C333.313 219.722 333.596 219.422 333.937 219.202L347.97 211.09C348.326 210.9 348.723 210.8 349.126 210.8C349.53 210.8 349.927 210.9 350.282 211.09L351.073 211.536C351.416 211.76 351.7 212.062 351.901 212.419C352.102 212.775 352.215 213.175 352.229 213.584Z" fill="#263238"/>
<path d="M351.073 225.63L337.039 233.742C336.39 234.107 335.863 233.742 335.863 233.073V223.176C335.883 222.771 335.997 222.376 336.198 222.024C336.399 221.672 336.68 221.372 337.019 221.148L351.053 213.036C351.682 212.651 352.209 213.036 352.209 213.706V223.602C352.187 224.005 352.073 224.397 351.877 224.748C351.68 225.1 351.405 225.402 351.073 225.63Z" fill="#37474F"/>
<path d="M348.133 220.54L339.838 225.326L344.462 228.003L339.858 225.346V229.402L344.462 232.059V236.764C344.36 238.592 343.829 240.37 342.913 241.956C341.997 243.541 340.722 244.888 339.189 245.89L286.461 276.31C286.022 276.561 285.552 276.752 285.062 276.878C284.928 276.403 284.859 275.911 284.859 275.418V266.495L281.188 264.365L276.625 261.729L268.371 266.474V270.53L272.975 273.187V281.299C272.916 282.161 273.071 283.025 273.424 283.813C273.778 284.602 274.32 285.291 275.003 285.821C275.713 286.369 278.511 287.849 279.059 288.255C282.121 290.1 287.739 289.269 294.168 285.537L338.784 259.741C348.498 254.144 356.346 244.126 356.346 237.433V225.265L348.133 220.54Z" fill="#5F85DB"/>
<path opacity="0.4" d="M348.133 220.54L339.838 225.326L344.462 228.003L339.858 225.346V229.402L344.462 232.059V236.764C344.36 238.592 343.829 240.37 342.913 241.956C341.997 243.541 340.722 244.888 339.189 245.89L286.461 276.31C286.022 276.561 285.552 276.752 285.062 276.878C284.928 276.403 284.859 275.911 284.859 275.418V266.495L281.188 264.365L276.625 261.729L268.371 266.474V270.53L272.975 273.187V281.299C272.916 282.161 273.071 283.025 273.424 283.813C273.778 284.602 274.32 285.291 275.003 285.821C275.713 286.369 278.511 287.849 279.059 288.255C282.121 290.1 287.739 289.269 294.168 285.537L338.784 259.741C348.498 254.144 356.346 244.126 356.346 237.433V225.265L348.133 220.54Z" fill="black"/>
<path d="M276.565 283.672C276.565 290.425 284.433 291.378 294.127 285.7L338.743 259.903C348.437 254.306 356.305 244.288 356.305 237.595V225.427L348.193 220.641L339.899 225.427L348.193 230.234V239.096C348.094 240.925 347.565 242.704 346.649 244.29C345.733 245.876 344.455 247.223 342.921 248.222L290.193 278.642C287.293 280.325 284.92 278.967 284.92 275.62V266.697L276.666 261.911L268.412 266.657L276.686 271.443L276.565 283.672Z" fill="#5F85DB"/>
<path opacity="0.2" d="M276.565 283.672C276.565 290.425 284.433 291.378 294.127 285.7L338.743 259.903C348.437 254.306 356.305 244.288 356.305 237.595V225.427L348.193 220.641L339.899 225.427L348.193 230.234V239.096C348.094 240.925 347.565 242.704 346.649 244.29C345.733 245.876 344.455 247.223 342.921 248.222L290.193 278.642C287.293 280.325 284.92 278.967 284.92 275.62V266.697L276.666 261.911L268.412 266.657L276.686 271.443L276.565 283.672Z" fill="black"/>
<path d="M348.133 220.54L339.858 225.346L348.133 230.133L356.305 225.326L348.133 220.54Z" fill="#5F85DB"/>
<path opacity="0.3" d="M348.133 220.54L339.858 225.346L348.133 230.133L356.305 225.326L348.133 220.54Z" fill="black"/>
<path d="M276.544 261.891L268.29 266.636L276.564 271.422L284.798 266.677L276.544 261.891Z" fill="#5F85DB"/>
<path opacity="0.3" d="M276.544 261.891L268.29 266.636L276.564 271.422L284.798 266.677L276.544 261.891Z" fill="black"/>
</svg>
