<svg width="309" height="645" viewBox="0 0 309 645" fill="none" xmlns="http://www.w3.org/2000/svg">
<path d="M141.251 114.359C130.949 113.285 116.773 114.501 108.438 128.677C105.74 133.281 91.8487 162.91 81.5667 188.381C71.2848 167.351 62.6861 149.505 61.5098 146.219C58.3867 137.438 58.9343 131.78 55.7503 122.715C53.8969 117.742 52.5979 112.58 51.8768 107.322C51.2684 103.753 47.9628 106.004 46.7257 107.322C44.6263 109.747 43.2925 112.739 42.8928 115.921C42.548 118.74 42.6088 122.228 40.1144 123.566C38.0864 124.662 35.5311 123.566 33.5234 122.269C25.977 117.689 18.9051 112.369 12.412 106.389C11.3842 105.324 10.1845 104.44 8.86299 103.773C8.22206 103.392 7.48059 103.214 6.73633 103.262C5.99208 103.31 5.27989 103.583 4.69367 104.044C4.10744 104.505 3.67468 105.133 3.45235 105.845C3.23001 106.557 3.22856 107.319 3.4482 108.032C3.7688 109.482 4.36052 110.858 5.19225 112.088C4.06295 112.684 3.10044 113.553 2.39212 114.615C1.68379 115.678 1.2521 116.9 1.13625 118.172C0.892892 119.977 1.25796 121.701 0.974039 123.465C0.568712 125.473 0.568712 127.541 0.974039 129.549C1.86007 132.211 3.42599 134.594 5.51674 136.465C9.59556 140.673 14.125 144.421 19.0232 147.639C22.2545 149.748 25.4452 151.904 28.5954 154.108C31.726 155.886 34.5477 158.16 36.9507 160.841C40.8242 166.114 42.9334 172.421 45.367 178.424C49.139 187.672 54.6552 213.326 66.377 232.409C73.11 243.401 83.473 247.964 92.741 236.303C97.9386 229.67 102.476 222.545 106.288 215.029C119.612 188.361 128.941 165.972 128.941 165.972C128.941 165.972 146.382 138.452 141.251 114.359Z" fill="#FFA8A7"/>
<path d="M81.5667 188.381C85.6227 195.54 88.1577 206.512 87.1437 212.251C87.1437 212.251 92.5382 197.021 83.0877 184.609L81.5667 188.381Z" fill="#F28F8F"/>
<path d="M143.441 114.238C132.551 113.163 119.754 110.648 108.438 126.892C97.1214 143.137 84.4465 177.856 84.4465 177.856C84.4465 177.856 93.3494 205.802 122.857 207.566L143.441 114.238Z" fill="#EBEBEB"/>
<path d="M291.485 199.069C288.767 202.861 282.44 198.319 271.205 192.985C259.97 187.651 268.528 136.201 268.528 136.201C268.528 136.201 287.064 137.722 289.051 155.264C291.039 172.806 291.485 199.069 291.485 199.069Z" fill="#5F85DB"/>
<path opacity="0.25" d="M291.485 199.069C288.767 202.861 282.44 198.319 271.205 192.985C259.97 187.651 268.528 136.201 268.528 136.201C268.528 136.201 287.064 137.722 289.051 155.264C291.039 172.806 291.485 199.069 291.485 199.069Z" fill="black"/>
<path d="M202.05 101.096C191.14 100.082 166.013 110.831 161.49 119.044C156.785 127.663 133.098 247.396 141.474 259.422C152.08 274.49 207.465 306.675 232.734 307.831C253.561 308.763 274.815 291.201 278.404 285.888C284.306 277.167 287.348 152.303 281.548 141.311C272.178 123.526 215.962 102.414 202.05 101.096Z" fill="#5F85DB"/>
<path opacity="0.1" d="M202.05 101.096C191.14 100.082 166.013 110.831 161.49 119.044C156.785 127.663 133.098 247.396 141.474 259.422C152.08 274.49 207.465 306.675 232.734 307.831C253.561 308.763 274.815 291.201 278.404 285.888C284.306 277.167 287.348 152.303 281.548 141.311C272.178 123.526 215.962 102.414 202.05 101.096Z" fill="white"/>
<path opacity="0.2" d="M202.05 101.096C191.14 100.082 166.013 110.831 161.49 119.044C156.785 127.663 133.098 247.396 141.474 259.422C152.08 274.49 207.465 306.675 232.734 307.831C253.561 308.763 274.815 291.201 278.404 285.888C284.306 277.167 287.348 152.303 281.548 141.311C272.178 123.526 215.962 102.414 202.05 101.096Z" fill="black"/>
<path d="M284.57 204.991C284.57 199.758 284.671 194.587 284.671 189.598C284.671 187.57 284.671 185.542 284.671 183.676C284.671 179.783 284.671 176.051 284.509 172.502C284.509 170.717 284.509 168.994 284.367 167.31C284.367 164.796 284.205 162.423 284.083 160.172C283.961 157.921 283.839 155.852 283.677 153.926C283.677 153.297 283.576 152.668 283.535 152.06C283.393 148.397 282.71 144.775 281.507 141.311C281.244 140.825 280.939 140.297 280.595 139.79L280.25 139.283L279.479 138.229L278.993 137.62L278.141 136.627L277.593 136.018C277.147 135.532 276.681 135.065 276.194 134.578L275.22 133.646L274.551 133.037L273.416 132.023L272.827 131.536L271.509 130.421C261.369 133.747 251.797 136.931 251.513 137.093C250.884 137.418 240.44 142.67 239.751 157.961L235.208 219.754L234.742 225.636C234.255 233.748 221.397 308.784 244.882 306.31H245.814C261.795 301.99 275.667 290.086 278.506 286.03C279.171 284.76 279.623 283.39 279.844 281.974C280.007 281.189 280.169 280.297 280.331 279.297C280.412 278.81 280.493 278.303 280.574 277.776C280.818 276.173 281.041 274.369 281.264 272.401C281.264 271.752 281.406 271.083 281.487 270.373C282.562 260.01 283.515 245.652 284.002 230.239C284.103 227.157 284.204 224.034 284.306 220.89C284.306 218.862 284.407 216.672 284.468 214.583V211.419L284.57 204.991Z" fill="#5F85DB"/>
<path opacity="0.4" d="M283.109 148.349C282.951 145.939 282.431 143.567 281.568 141.311C272.178 123.526 215.962 102.414 202.05 101.096C191.14 100.082 166.013 110.831 161.49 119.044C160.08 122.587 158.974 126.244 158.185 129.975C179.134 143.238 233.586 173.313 239.548 171.65C246.869 169.622 282.4 149.342 283.089 148.369L283.109 148.349Z" fill="black"/>
<path d="M287.246 229.874C286.618 229.489 277.553 221.62 276.478 220.971C274.592 219.836 244.8 237.013 242.002 240.075C239.974 242.225 240.339 277.532 241.272 280.108C241.616 281.041 251.696 288.078 252.02 289.011C252.973 291.586 284.367 274.206 286.496 269.623C288.626 265.04 289.964 231.537 287.246 229.874Z" fill="#5F85DB"/>
<path opacity="0.18" d="M287.246 229.874C286.618 229.489 277.553 221.62 276.478 220.971C274.592 219.836 244.8 237.013 242.002 240.075C239.974 242.225 240.339 277.532 241.272 280.108C241.616 281.041 251.696 288.078 252.02 289.011C252.973 291.586 284.367 274.206 286.496 269.623C288.626 265.04 289.964 231.537 287.246 229.874Z" fill="black"/>
<path d="M252.71 248.978C250.682 251.107 251.026 286.415 251.959 289.011C252.892 291.607 284.306 274.206 286.435 269.623C288.565 265.04 289.944 231.537 287.165 229.874C285.36 228.739 255.488 245.936 252.71 248.978Z" fill="#5F85DB"/>
<path opacity="0.4" d="M276.498 220.971C277.553 221.6 286.638 229.489 287.226 229.854C285.36 228.739 255.569 245.916 252.75 248.978L241.982 240.075C244.8 236.992 274.592 219.836 276.498 220.971Z" fill="black"/>
<path opacity="0.3" d="M252.71 248.978C250.682 251.107 251.026 286.415 251.959 289.011C252.892 291.607 284.306 274.206 286.435 269.623C288.565 265.04 289.944 231.537 287.165 229.874C285.36 228.739 255.488 245.936 252.71 248.978Z" fill="black"/>
<path d="M241.941 240.075C244.152 238.858 250.235 242.671 252.811 245.206C255.387 247.741 257.557 258.976 264.472 261.207C271.388 263.438 282.014 254.839 284.529 249.039C287.044 243.239 290.39 230.787 287.307 226.122C284.225 221.458 278.425 218.538 273.233 220.89C268.041 223.243 242.935 234.64 241.941 240.075Z" fill="#5F85DB"/>
<path opacity="0.1" d="M241.941 240.075C244.152 238.858 250.235 242.671 252.811 245.206C255.387 247.741 257.557 258.976 264.472 261.207C271.388 263.438 282.014 254.839 284.529 249.039C287.044 243.239 290.39 230.787 287.307 226.122C284.225 221.458 278.425 218.538 273.233 220.89C268.041 223.243 242.935 234.64 241.941 240.075Z" fill="black"/>
<path d="M273.334 247.193C272.489 247.647 271.783 248.324 271.294 249.149C270.804 249.975 270.549 250.918 270.556 251.878C270.497 252.262 270.549 252.656 270.706 253.011C270.864 253.366 271.121 253.669 271.446 253.883C271.77 254.097 272.15 254.212 272.539 254.216C272.928 254.221 273.309 254.113 273.639 253.906C274.496 253.464 275.212 252.791 275.706 251.963C276.201 251.135 276.454 250.185 276.437 249.221C276.356 247.376 274.957 246.443 273.334 247.193Z" fill="#37474F"/>
<path d="M238.777 171.711C238.777 171.711 243.685 157.515 261.998 148.531C280.311 139.547 280.595 142.832 285.523 153.054C289.964 162.261 289.579 195.398 289.68 198.562C289.781 201.726 293.513 201.421 294.344 181.202C295.176 160.983 293.716 141.474 275.727 128.19C251.513 110.283 213.022 97.0199 194.263 99.7983C175.504 102.577 158.245 110.628 158.205 130.015C158.144 129.975 179.925 163.68 238.777 171.711Z" fill="#5F85DB"/>
<path opacity="0.1" d="M238.777 171.711C238.777 171.711 243.685 157.515 261.998 148.531C280.311 139.547 280.595 142.832 285.523 153.054C289.964 162.261 289.579 195.398 289.68 198.562C289.781 201.726 293.513 201.421 294.344 181.202C295.176 160.983 293.716 141.474 275.727 128.19C251.513 110.283 213.022 97.0199 194.263 99.7983C175.504 102.577 158.245 110.628 158.205 130.015C158.144 129.975 179.925 163.68 238.777 171.711Z" fill="black"/>
<path d="M189.314 124.256C189.314 124.256 182.176 127.866 181.527 132.246C180.878 136.627 178.018 147.091 179.641 150.093C181.263 153.094 186.8 153.824 187.651 151.837C188.503 149.849 190.044 137.235 191.444 134.031C192.843 130.827 198.379 126.994 198.379 126.994L189.314 124.256Z" fill="#5F85DB"/>
<path d="M230.868 136.769C230.868 136.769 223.811 139.872 223.162 144.252C222.513 148.633 219.592 158.651 221.134 161.673C222.675 164.694 228.293 165.404 229.144 163.417C229.996 161.429 231.537 148.815 232.937 145.611C234.336 142.407 239.933 139.365 239.933 139.365L230.868 136.769Z" fill="#5F85DB"/>
<g opacity="0.3">
<path opacity="0.3" d="M189.314 124.256C189.314 124.256 182.176 127.866 181.527 132.246C180.878 136.627 178.018 147.091 179.641 150.093C181.263 153.094 186.8 153.824 187.651 151.837C188.503 149.849 190.044 137.235 191.444 134.031C192.843 130.827 198.379 126.994 198.379 126.994L189.314 124.256Z" fill="white"/>
<path opacity="0.3" d="M230.868 136.769C230.868 136.769 223.811 139.872 223.162 144.252C222.513 148.633 219.592 158.651 221.134 161.673C222.675 164.694 228.293 165.404 229.144 163.417C229.996 161.429 231.537 148.815 232.937 145.611C234.336 142.407 239.933 139.365 239.933 139.365L230.868 136.769Z" fill="white"/>
</g>
<path d="M182.886 63.0712C178.83 61.7328 174.064 63.0712 169.257 67.2489C159.685 75.7057 153.946 92.7003 156.481 105.233C157.799 111.804 161.145 115.82 165.404 116.935L275.342 150.154L293.594 96.5738L262.748 91.808L251.391 88.0765L213.184 75.9085L207.931 74.0022L182.886 63.0712Z" fill="#455A64"/>
<path d="M299.767 128.49C304.761 113.662 301.864 99.3023 293.298 96.4179C284.732 93.5334 273.74 103.216 268.747 118.045C263.754 132.874 266.65 147.233 275.216 150.117C283.782 153.002 294.774 143.319 299.767 128.49Z" fill="#37474F"/>
<path d="M210.02 74.8741C210.02 74.8741 186.901 88.3604 189.314 124.175L198.38 126.913C198.38 126.913 195.703 92.4366 221.073 78.5245L210.02 74.8741Z" fill="#5F85DB"/>
<path d="M251.432 88.117C251.432 88.117 228.272 100.853 230.686 136.647L239.771 139.405C239.771 139.405 237.419 105.74 262.789 91.8485L251.432 88.117Z" fill="#5F85DB"/>
<g opacity="0.15">
<path opacity="0.15" d="M192.032 99.778C189.587 107.643 188.665 115.903 189.314 124.114L198.38 126.852C198.031 118.817 199.109 110.783 201.563 103.124L192.032 99.778Z" fill="black"/>
<path opacity="0.15" d="M232.754 114.359C230.796 121.623 230.11 129.17 230.726 136.667L239.812 139.425C239.562 132.145 240.521 124.874 242.651 117.908L232.754 114.359Z" fill="black"/>
</g>
<path d="M294.182 112.899C290.491 110.547 286.577 113.731 284.752 116.955C283.385 119.686 282.762 122.729 282.947 125.777C282.834 127.061 283.094 128.35 283.697 129.488C284.346 130.441 285.482 130.908 286.314 129.914C286.658 129.529 286.314 128.353 285.705 128.474C285.097 128.596 285.3 128.778 285.158 128.576C285.041 128.188 285.007 127.781 285.056 127.379C285.078 126.198 285.221 125.022 285.482 123.871C285.708 122.066 286.251 120.316 287.084 118.699C287.861 117.241 288.981 115.995 290.349 115.069C291.526 114.359 293.31 114.075 293.736 115.718C294.426 118.334 292.884 121.802 292.053 124.337C290.971 128.012 289.21 131.451 286.861 134.477C285.523 136.099 281.771 139.648 279.378 138.229C276.985 136.809 277.228 132.287 277.208 130.117C277.222 126.658 277.833 123.228 279.013 119.977C280.155 116.182 282.006 112.638 284.468 109.533C285.487 108.368 286.795 107.494 288.26 106.998C289.437 106.592 292.174 105.72 292.641 107.403C292.763 107.809 293.574 108.6 293.959 108.012C295.318 105.984 293.29 104.158 291.262 103.672C289.671 103.33 288.023 103.353 286.443 103.74C284.862 104.126 283.39 104.865 282.136 105.903C278.465 108.782 276.397 114.015 274.794 118.294C273.054 122.861 272.361 127.761 272.766 132.632C273.091 136.424 274.328 141.21 278.607 142.163C283.211 143.197 288.037 139.831 290.613 136.262C293.42 132.033 295.275 127.244 296.048 122.228C296.717 119.247 297.204 114.826 294.182 112.899Z" fill="#263238"/>
<path d="M216.145 588.546C209.229 592.258 201.604 591.953 193.391 588.546L189.213 543.809L217.828 540.726L216.145 588.546Z" fill="#FFA8A7"/>
<path d="M133.565 561.797C127.744 574.411 117.219 570.923 105.355 562.852L107.383 517.87H135.978L133.565 561.797Z" fill="#FFA8A7"/>
<path d="M165.749 630.891C164.978 631.601 165.222 636.488 166.053 637.806C166.885 639.125 172.137 643.627 181.446 644.296C190.349 644.925 198.319 643.728 203.551 640.402C208.783 637.076 211.318 633.406 211.805 628.336C212.292 623.266 211.805 618.358 214.157 614.444C216.388 610.834 219.937 606.778 220.728 604.811C222.411 600.552 220.728 594.468 220.728 594.468L165.749 630.891Z" fill="#263238"/>
<path d="M190.207 586.64C190.068 588.556 189.7 590.449 189.112 592.278C187.748 596.208 185.916 599.96 183.656 603.452C182.535 605.282 181.295 607.037 179.945 608.705C177.248 611.909 173.861 614.545 171.042 617.608C167.996 620.513 166.047 624.382 165.526 628.559C165.161 635.555 172.746 637.928 178.586 638.962C184.905 640.069 191.392 639.743 197.568 638.009C200.813 637.159 203.745 635.394 206.014 632.924C208.283 630.453 209.793 627.382 210.365 624.077C210.669 622.049 210.568 620.163 210.791 618.196C211.573 613.754 213.44 609.574 216.226 606.028C217.856 603.968 219.256 601.738 220.404 599.376C222.229 595.036 220.748 590.169 219.592 585.869C218.578 582.138 217.808 577.96 216.51 578.305C216.51 579.055 216.51 580.556 216.51 580.556C216.064 581.367 215.151 581.773 214.887 582.726C214.617 583.716 214.257 584.68 213.813 585.606C213.159 587.037 212.074 588.229 210.71 589.013C210.71 586.376 210.548 583.74 210.446 581.104C210.508 580.28 210.294 579.459 209.838 578.771C209.226 578.206 208.438 577.869 207.607 577.818C202.709 576.609 197.654 576.164 192.62 576.5C192.239 576.49 191.86 576.563 191.51 576.714C191.16 576.864 190.847 577.089 190.592 577.372C190.285 577.913 190.163 578.54 190.247 579.157C190.366 581.65 190.353 584.148 190.207 586.64Z" fill="#455A64"/>
<path d="M182.703 604.892C185.319 602.864 191.14 602.864 194.344 603.27C197.586 603.549 200.704 604.644 203.409 606.454C203.804 606.744 204.291 606.881 204.779 606.84C205.267 606.799 205.725 606.582 206.066 606.23C206.257 606.029 206.405 605.789 206.5 605.528C206.595 605.266 206.635 604.988 206.618 604.71C206.601 604.433 206.527 604.161 206.4 603.914C206.274 603.666 206.098 603.447 205.883 603.27C202.923 601.084 199.411 599.77 195.743 599.477C187.895 598.93 185.603 600.268 185.603 600.268C185.603 600.268 181.932 602.54 182.703 604.892Z" fill="#F5F5F5"/>
<path d="M176.721 612.01C180.006 610.084 186.414 610.368 189.598 610.712C192.781 611.035 195.824 612.189 198.42 614.059C198.814 614.357 199.304 614.501 199.797 614.464C200.29 614.426 200.752 614.21 201.097 613.856C201.291 613.652 201.44 613.411 201.535 613.146C201.63 612.882 201.67 612.601 201.651 612.321C201.632 612.04 201.555 611.767 201.424 611.518C201.294 611.269 201.114 611.05 200.894 610.875C197.869 608.572 194.257 607.167 190.47 606.819C182.622 606.271 180.574 607.873 180.574 607.873C179.661 608.227 178.84 608.784 178.173 609.5C177.506 610.217 177.009 611.075 176.721 612.01Z" fill="#F5F5F5"/>
<path d="M198.805 591.933C195.497 591.345 192.093 591.632 188.929 592.765C187.55 593.535 186.637 595.725 187.53 596.273C190.298 595.152 193.303 594.741 196.27 595.076C199.217 595.356 202.092 596.145 204.768 597.409C205.502 597.737 206.22 598.103 206.917 598.504C207.139 598.629 207.385 598.708 207.638 598.734C207.891 598.761 208.148 598.736 208.391 598.66C208.634 598.584 208.859 598.459 209.052 598.292C209.245 598.126 209.402 597.922 209.513 597.693C209.699 597.302 209.731 596.856 209.604 596.443C209.476 596.029 209.198 595.679 208.824 595.462C205.778 593.577 202.36 592.373 198.805 591.933Z" fill="#F5F5F5"/>
<path d="M58.5084 590.574C57.8345 592.621 57.965 594.847 58.8734 596.8C59.7252 598.605 69.2365 603.979 82.0737 603.107C91.5843 602.44 100.743 599.24 108.6 593.839C113.487 590.595 118.578 589.986 124.925 589.621C131.273 589.256 139.628 586.092 141.028 583.132C142.427 580.171 140.805 575.02 140.805 575.02L58.5084 590.574Z" fill="#263238"/>
<path d="M110.06 551.13L106.734 549.893C106.151 549.597 105.481 549.525 104.848 549.69C104.017 549.994 103.692 550.967 103.489 551.718C103.196 553.616 102.727 555.483 102.09 557.295C101.132 558.772 99.9082 560.058 98.4802 561.087C95.2939 563.635 91.8555 565.85 88.2185 567.698C84.0206 569.95 79.924 571.754 75.6044 573.641C71.2847 575.527 65.3224 576.845 61.8748 579.177C56.8454 582.564 56.1964 591.081 61.8748 594.448C66.8232 597.348 79.8429 600.532 93.4914 596.638C100.934 594.61 109.188 586.498 118.963 585.809C125.169 585.322 136.911 583.578 140.906 578.873C142.366 576.845 140.399 570.152 138.878 564.433C137.114 558.187 136.444 548.412 134.376 548.96C134.234 550.988 132.348 552.245 131.334 553.989C130.474 555.588 129.735 557.249 129.123 558.958C128.494 560.671 127.363 562.155 125.879 563.217C125.131 563.743 124.227 564.002 123.314 563.95C122.401 563.899 121.533 563.54 120.849 562.933C119.024 561.047 120.099 557.741 118.821 555.47C117.741 554.043 116.2 553.032 114.461 552.61L110.06 551.13Z" fill="#455A64"/>
<path d="M94.0187 564.332C94.4657 563.479 95.1195 562.752 95.9202 562.217C96.7208 561.682 97.6429 561.356 98.602 561.27C101.421 560.742 106.41 562.831 109.512 565.326C109.81 565.563 110.045 565.87 110.195 566.219C110.346 566.569 110.408 566.95 110.376 567.329C110.344 567.708 110.218 568.074 110.011 568.393C109.804 568.712 109.521 568.975 109.188 569.159C108.767 569.387 108.287 569.48 107.812 569.425C107.337 569.371 106.89 569.171 106.531 568.854C103.106 565.779 98.6186 564.157 94.0187 564.332Z" fill="#F5F5F5"/>
<path d="M85.2577 569.301C85.8715 568.431 86.6861 567.723 87.6323 567.235C88.5786 566.748 89.6284 566.497 90.6927 566.502C90.6927 566.502 98.0746 566.725 102.638 570.964C102.915 571.199 103.132 571.497 103.271 571.834C103.411 572.17 103.468 572.535 103.438 572.897C103.408 573.26 103.292 573.61 103.1 573.919C102.908 574.229 102.645 574.488 102.333 574.675C101.927 574.891 101.465 574.978 101.008 574.924C100.551 574.869 100.122 574.676 99.7781 574.371C97.8906 572.494 95.6064 571.064 93.0936 570.187C90.5807 569.31 87.9031 569.007 85.2577 569.301Z" fill="#F5F5F5"/>
<path d="M75.6044 573.722C76.3085 572.921 77.176 572.28 78.1485 571.843C79.121 571.406 80.1759 571.182 81.2422 571.187C85.4371 571.447 89.4416 573.03 92.6802 575.709C92.9608 575.942 93.1808 576.239 93.3213 576.575C93.4617 576.911 93.5184 577.277 93.4865 577.64C93.4546 578.003 93.335 578.353 93.138 578.659C92.9411 578.966 92.6726 579.22 92.3557 579.4C91.9573 579.626 91.4975 579.721 91.0421 579.67C90.5867 579.619 90.1591 579.425 89.8207 579.116C88.0366 577.17 85.8215 575.668 83.3529 574.731C80.8843 573.795 78.2306 573.449 75.6044 573.722Z" fill="#F5F5F5"/>
<path d="M215.334 262.038C216.956 310.994 218.7 418.965 218.7 418.965C219.227 425.049 221.032 439.711 221.478 461.654C222.148 493.474 217.544 563.541 217.544 563.541C217.544 563.541 204.281 570.68 190.369 564.88C190.369 564.88 175.26 464.331 170.413 433.06C166.155 405.479 157.779 353.562 157.779 353.562L151.168 420.222C151.647 433.71 150.88 447.213 148.876 460.559C146.645 474.978 136.039 537.623 136.039 537.623C125.937 540.172 115.333 539.934 105.355 536.934C105.355 536.934 105.619 434.195 105.355 420.831C105.071 405.58 106.552 249.059 106.552 249.059L215.334 262.038Z" fill="#37474F"/>
<path d="M157.779 353.42L150.539 313.306C150.539 313.306 130.462 311.542 119.369 300.347C119.369 300.347 121.397 311.319 146.584 317.91L153.824 358.47L153.54 396.008L157.779 353.42Z" fill="#263238"/>
<path d="M106.552 149.322C108.762 133.341 118.72 115.211 143.441 114.238L175.423 115.759C183.291 117.787 204.727 123.039 212.941 125.899L214.482 190.795C214.482 190.795 216.51 240.805 215.82 267.575C192.924 282.075 137.134 284.975 105.842 261.227C104.909 239.142 104.361 165.161 106.552 149.322Z" fill="#5F85DB"/>
<path opacity="0.4" d="M106.552 149.322C108.762 133.341 118.72 115.211 143.441 114.238L175.423 115.759C183.291 117.787 204.727 123.039 212.941 125.899L214.482 190.795C214.482 190.795 216.51 240.805 215.82 267.575C192.924 282.075 137.134 284.975 105.842 261.227C104.909 239.142 104.361 165.161 106.552 149.322Z" fill="white"/>
<path d="M108.458 45.306C108.723 37.0662 112.14 29.2423 118.005 23.4479C123.869 17.6536 131.733 14.3305 139.976 14.164C148.218 13.9976 156.21 17.0004 162.304 22.5533C168.397 28.1062 172.128 35.7857 172.725 44.0081L187.53 33.8681C189.262 33.7186 191.005 33.9681 192.626 34.5974C194.246 35.2267 195.701 36.219 196.879 37.4982C200.813 41.7773 198.116 54.7159 192.661 67.2692C192.661 67.2692 186.962 90.3073 184.853 94.0388C183.462 96.3513 181.231 98.0369 178.627 98.7438L179.377 84.6898L120.991 79.4575L126.852 75.4015C121.191 72.7179 116.436 68.4413 113.168 63.0958C109.901 57.7503 108.264 51.5679 108.458 45.306Z" fill="#263238"/>
<path d="M180.452 67.9587C182.277 69.1349 185.056 65.6468 187.428 63.3146C189.801 60.9824 197.426 57.9404 200.915 65.951C204.403 73.9616 197.001 84.4869 191.018 86.231C180.736 89.1107 179.418 82.5197 179.418 82.5197L177.39 119.227C168.304 128.738 138.371 125.432 144.313 117.199L144.698 106.024C140.137 106.599 135.528 106.687 130.949 106.288C123.506 104.889 118.983 98.8248 116.976 90.6317C113.751 77.5106 112.697 66.9447 116.631 41.4527C120.93 13.5069 153.581 14.2572 170.839 25.9385C188.098 37.6198 180.452 67.9587 180.452 67.9587Z" fill="#FFA8A7"/>
<path d="M110.101 15.0685C112.574 13.9228 115.362 13.6511 118.01 14.2978C117.874 12.2942 118.371 10.2985 119.429 8.59212C120.488 6.88571 122.056 5.55461 123.911 4.78649C125.88 3.87246 128.074 3.55814 130.219 3.88272C132.365 4.2073 134.368 5.15641 135.978 6.6117C135.228 3.75222 137.884 0.91302 140.764 0.3249C143.721 0.00489034 146.707 0.547224 149.363 1.88647C153.419 3.52915 157.475 5.35433 161.531 6.8145C168.832 9.41034 176.639 10.8705 183.21 15.0482C184.789 15.9613 186.168 17.1819 187.266 18.6377C188.646 20.8158 189.26 23.3923 189.01 25.9588C188.946 26.807 188.81 27.6482 188.605 28.4735C189.115 27.9333 189.711 27.4811 190.369 27.1351C191.125 26.7634 191.948 26.5489 192.789 26.5046C193.63 26.4602 194.471 26.5869 195.261 26.8769C196.052 27.167 196.775 27.6144 197.388 28.1921C198.001 28.7698 198.49 29.4657 198.826 30.2379L187.651 35.7744C187.874 38.0052 188.118 40.236 188.3 42.487C188.787 48.3885 189.821 55.304 188.3 61.1446C188.227 61.8735 187.969 62.5716 187.55 63.1726C186.948 63.7771 186.43 64.4591 186.009 65.2006C185.339 66.3971 184.67 67.5937 183.981 68.7902C183.088 70.3923 181.669 72.2378 179.6 71.9944C178.444 71.8525 177.856 70.2301 177.572 69.2972C174.774 58.853 174.875 47.7396 171.367 37.5184C171.297 37.2116 171.142 36.9306 170.92 36.7072C170.707 36.585 170.471 36.5075 170.227 36.4796C169.983 36.4518 169.736 36.474 169.501 36.545C164.167 37.3765 158.834 38.2485 153.48 38.8975C141.312 40.3374 128.272 40.4185 117.685 34.2939C113.629 31.9009 106.633 26.9728 105.984 21.8014C105.896 20.3922 106.243 18.99 106.98 17.7854C107.717 16.5808 108.806 15.6322 110.101 15.0685Z" fill="#263238"/>
<path d="M144.84 106.004C144.84 106.004 161.652 103.185 167.594 100.265C171.092 98.5861 174.003 95.8938 175.95 92.5381C174.951 95.9249 173.282 99.0765 171.042 101.806C166.601 107.14 144.678 110.445 144.678 110.445L144.84 106.004Z" fill="#F28F8F"/>
<path d="M146.28 64.7951C146.234 65.2468 146.281 65.7033 146.418 66.1361C146.556 66.5689 146.781 66.9687 147.08 67.3106C147.379 67.6524 147.745 67.929 148.156 68.1231C148.567 68.3171 149.013 68.4245 149.467 68.4384C149.921 68.4524 150.373 68.3727 150.794 68.2042C151.216 68.0358 151.599 67.7823 151.918 67.4594C152.238 67.1366 152.487 66.7514 152.651 66.3279C152.815 65.9044 152.89 65.4516 152.871 64.9979C152.918 64.5461 152.871 64.0896 152.733 63.6568C152.596 63.224 152.37 62.8242 152.071 62.4823C151.772 62.1405 151.406 61.8639 150.995 61.6698C150.585 61.4758 150.139 61.3684 149.685 61.3545C149.231 61.3405 148.779 61.4202 148.357 61.5887C147.935 61.7571 147.553 62.0106 147.233 62.3335C146.914 62.6563 146.664 63.0415 146.5 63.465C146.336 63.8885 146.261 64.3413 146.28 64.7951Z" fill="#263238"/>
<path d="M149.728 52.0998L157.029 55.811C157.509 54.8095 157.582 53.6611 157.235 52.6064C156.887 51.5517 156.144 50.6724 155.163 50.1529C154.679 49.9203 154.153 49.7861 153.617 49.7582C153.081 49.7303 152.544 49.8092 152.038 49.9903C151.533 50.1714 151.068 50.4512 150.671 50.8133C150.275 51.1754 149.954 51.6127 149.728 52.0998Z" fill="#263238"/>
<path d="M148.694 83.9393L136.911 87.9953C137.141 88.7802 137.528 89.5105 138.047 90.1427C138.566 90.7748 139.207 91.2958 139.932 91.6744C140.657 92.0531 141.451 92.2816 142.267 92.3464C143.082 92.4111 143.902 92.3108 144.678 92.0513C146.266 91.4799 147.571 90.3161 148.319 88.8039C149.068 87.2916 149.202 85.5483 148.694 83.9393Z" fill="#B16668"/>
<path d="M148.775 87.5289C148.031 87.0827 147.182 86.8423 146.315 86.8326C145.448 86.8228 144.594 87.044 143.84 87.4734C143.087 87.9028 142.461 88.5249 142.027 89.276C141.594 90.027 141.368 90.8799 141.373 91.7472C141.362 91.8957 141.362 92.0448 141.373 92.1933C142.453 92.4447 143.583 92.3956 144.638 92.0514C145.649 91.7015 146.557 91.1047 147.28 90.3149C148.002 89.5252 148.516 88.5675 148.775 87.5289Z" fill="#F28F8F"/>
<path d="M118.172 54.1684L124.723 49.5445C124.431 49.1163 124.056 48.751 123.62 48.4703C123.184 48.1896 122.697 47.9991 122.186 47.9102C121.676 47.8214 121.153 47.8358 120.648 47.9528C120.143 48.0698 119.666 48.287 119.247 48.5914C118.373 49.1952 117.771 50.1175 117.57 51.1603C117.37 52.2031 117.586 53.2831 118.172 54.1684Z" fill="#263238"/>
<path d="M119.612 63.781C119.616 64.4256 119.81 65.0546 120.169 65.5898C120.528 66.125 121.037 66.5427 121.632 66.791C122.227 67.0393 122.881 67.1071 123.514 66.9861C124.147 66.8651 124.731 66.5605 125.192 66.1103C125.653 65.6601 125.972 65.0842 126.108 64.4542C126.245 63.8243 126.193 63.1681 125.959 62.5675C125.725 61.9669 125.32 61.4483 124.793 61.0763C124.267 60.7043 123.643 60.4953 122.999 60.4754C122.559 60.4674 122.121 60.5468 121.712 60.709C121.303 60.8713 120.93 61.1132 120.615 61.4207C120.3 61.7281 120.049 62.0951 119.877 62.5003C119.705 62.9055 119.615 63.3408 119.612 63.781Z" fill="#263238"/>
<path d="M135.836 61.4083L134.842 81.7086L122.918 78.7274L135.836 61.4083Z" fill="#F28F8F"/>
<path d="M188.99 119.064C188.99 119.064 171.387 136.911 170.089 169.278C166.824 251.189 218.984 271.448 218.984 271.448C218.934 262.43 218.413 253.42 217.422 244.456C217.422 244.456 187.793 217.544 189.375 175.625C190.491 145.793 203.997 127.562 211.44 125.229C211.44 125.229 199.191 118.557 188.99 119.064Z" fill="#5F85DB"/>
<path opacity="0.4" d="M188.99 119.064C188.99 119.064 171.387 136.911 170.089 169.278C166.824 251.189 218.984 271.448 218.984 271.448C218.934 262.43 218.413 253.42 217.422 244.456C217.422 244.456 187.793 217.544 189.375 175.625C190.491 145.793 203.997 127.562 211.44 125.229C211.44 125.229 199.191 118.557 188.99 119.064Z" fill="black"/>
<path d="M237.844 270.738C230.746 269.177 222.776 263.782 212.92 254.616C202.64 245.291 193.043 235.24 184.204 224.541C182.622 222.695 177.816 217.463 176.092 215.8C172.877 212.616 169.989 209.117 167.473 205.356C161.977 197.244 160.395 191.728 161.389 181.932C162.565 169.764 163.133 161.348 166.945 156.096C167.624 155.461 168.426 154.975 169.303 154.668C170.179 154.36 171.11 154.239 172.036 154.311C171.448 156.501 171.285 158.894 170.88 161.064C171.128 165.138 172.902 168.969 175.848 171.792C180.858 177.572 184.548 180.959 185.116 179.722C185.684 178.485 183.9 174.672 184.447 168.466C184.995 162.261 186.658 160.01 188.503 159.523C191.505 158.732 191.505 161.997 192.823 166.925C194.384 172.827 196.879 176.031 197.345 184.751C197.69 192.377 197.345 195.459 200.914 199.819C202.942 202.253 213.387 209.797 213.387 209.797C213.387 209.797 208.824 195.763 204.321 181.77C195.479 154.331 198.947 129.792 209.777 125.594C225.25 126.284 234.762 132.469 241.86 154.838C249.424 178.647 252 188.746 258.205 235.411C262.748 270.029 249.688 273.375 237.844 270.738Z" fill="#FFA8A7"/>
<path d="M213.346 209.797C223.162 216.956 244.598 227.218 247.457 238.757C247.457 238.757 246.991 229.57 234.032 218.68C226.81 212.51 219.06 206.986 210.872 202.172L213.346 209.797Z" fill="#F28F8F"/>
<path d="M209.736 125.594C215.05 124.357 224.034 126.203 231.841 133.139C239.649 140.074 243.624 153.763 247.437 166.013C251.249 178.262 257.435 210.629 257.435 210.629C257.435 210.629 240.501 216.875 224.662 217.037C224.662 217.037 215.922 211.501 211.622 208.459C211.622 208.459 202.801 180.249 200.266 173.07C197.731 165.891 194.263 130.806 209.736 125.594Z" fill="#EBEBEB"/>
</svg>
