<svg width="263" height="623" viewBox="0 0 263 623" fill="none" xmlns="http://www.w3.org/2000/svg">
<path d="M167.249 423.596L144.697 509.624C144.697 509.624 135.389 515.099 127.358 509.624C121.01 505.345 121.375 500.275 121.375 500.275L121.761 495.631L128.372 420.595L167.249 423.596Z" fill="#B16668"/>
<path d="M146.34 256.854C159.522 302.788 181.85 380.886 175.543 405.202C170.818 423.454 158.792 458.62 158.792 458.62C150.822 459.735 128.615 463.467 122.288 449.534C120.686 426.922 112.594 302.808 112.594 302.808L146.34 256.854Z" fill="#37474F"/>
<path opacity="0.25" d="M112.574 302.808C120.96 294.901 128.761 286.394 135.916 277.357C135.916 277.357 134.233 288.227 119.226 303.234C119.226 303.234 144.373 400.112 144.231 415.565C144.089 431.018 133.665 515.545 133.665 515.545L112.574 302.808Z" fill="black"/>
<path d="M120.138 543.41L137.072 538.644L144.738 528.869L123.261 535.237L120.138 543.41Z" fill="black"/>
<path d="M175.523 568.111L151.876 551.603L133.178 532.966L124.438 532.114L126.283 527.207L113.912 517.066C111.722 521.995 111.438 533.554 111.438 533.554C111.438 533.554 112.777 538.827 120.138 543.512L121.558 539.882C122.085 544.85 121.375 556.106 126.283 563.974C131.617 572.593 141.655 574.743 149.747 576.426C159.177 578.454 170.453 576.284 172.542 575.149C173.651 574.375 174.519 573.305 175.047 572.06C175.574 570.815 175.739 569.446 175.523 568.111Z" fill="#263238"/>
<path d="M146.056 504.27L147.029 500.518C149.848 500.68 149.605 506.257 149.808 507.88C150.436 512.504 150.903 517.148 151.613 521.772C152.348 526.898 153.543 531.948 155.182 536.86C156.727 541.048 158.894 544.979 161.611 548.521C164.238 552.183 167.718 555.148 171.751 557.16C172.694 557.61 173.53 558.258 174.202 559.059C174.874 559.86 175.366 560.796 175.644 561.804C176.057 563.269 176.135 564.808 175.871 566.307C175.608 567.807 175.011 569.227 174.123 570.464C171.365 573.161 167.756 573.567 163.558 574.094C159.495 574.389 155.412 574.212 151.39 573.567C144.578 572.841 138.054 570.429 132.408 566.55C126.973 562.676 125.776 554.99 124.904 548.764C124.194 543.714 124.64 537.813 122.551 533.068C120.463 528.322 114.439 522.096 113.892 516.965C113.651 512.615 114.583 508.279 116.589 504.412C118.739 500.234 120.321 494.921 121.74 495.671L121.497 498.713C121.497 498.49 122.896 504.554 131.637 506.724C135.733 507.758 143.48 507.717 146.056 504.27Z" fill="#37474F"/>
<path d="M171.649 556.268C168.121 553.834 164.186 551.684 161.651 548.521C155.963 547.798 150.186 548.691 144.981 551.096C133.117 556.754 129.852 564.704 132.428 566.55C138.074 570.429 144.598 572.841 151.41 573.567C155.432 574.212 159.515 574.389 163.578 574.094C167.776 573.567 171.386 573.161 174.144 570.464C175.031 569.227 175.628 567.806 175.892 566.307C176.155 564.808 176.077 563.269 175.665 561.804C175.074 559.518 173.639 557.54 171.649 556.268Z" fill="#455A64"/>
<path d="M134.861 452.819C135.085 458.498 132.833 545.54 132.935 548.135C133.374 552.372 134.223 556.555 135.47 560.628C135.979 562.504 136.657 564.33 137.498 566.083C138.35 568.111 140.013 570.829 139.039 572.796C138.567 573.705 137.919 574.512 137.133 575.169C133.618 578.179 129.079 579.719 124.458 579.468C122.017 579.438 119.631 578.737 117.563 577.44C113.507 574.783 111.904 569.916 109.714 565.82C107.341 561.378 108.72 559.026 108.335 554.179C107.909 548.764 95.4777 467.157 94.3217 461.844C102.961 451.866 123.849 449.96 134.861 452.819Z" fill="#B16668"/>
<path d="M146.34 256.854C135.591 279.162 131.353 288.065 112.574 302.808C112.574 302.808 135.551 398.287 136.565 416.802C138.248 447.628 135.591 470.179 134.172 491.128C130.623 495.773 108.031 498.389 98.9861 491.514C96.7553 480.339 93.7539 462.939 92.2531 451.217C89.3328 428.625 92.4559 421.811 92.9427 415.89C80.7747 384.841 53.4372 339.515 43.4392 307.067C41.8166 301.478 40.7835 295.735 40.3566 289.931C38.1258 269.346 46.542 253.609 51.4903 242.617L146.34 256.813" fill="#37474F"/>
<path d="M112.918 595.023L120.138 591.9L112.918 591.514V595.023Z" fill="black"/>
<path d="M103.002 575.047C102.673 578.826 102.85 582.631 103.529 586.363C104.076 588.391 111.925 595.185 112.918 595.023V591.514C112.918 591.514 115.332 596.219 117.765 600.803C120.483 605.893 121.679 611.977 134.922 617.838C143.95 622.252 154.265 623.274 163.984 620.718C167.72 619.924 171.107 617.964 173.657 615.12C173.657 615.12 175.543 608.509 171.406 606.44C167.269 604.372 103.002 575.047 103.002 575.047Z" fill="#263238"/>
<path d="M135.916 551.624C135.977 553.186 136.271 554.731 136.788 556.207C137.64 558.418 138.633 560.628 139.587 562.818C141.816 568.107 144.669 573.111 148.084 577.724C161.611 595.469 175.726 596.24 174.164 610.497C173.535 614.553 165.565 619.866 148.104 618.913C139.181 618.426 126.202 611.267 122.673 605.345C119.144 599.424 117.846 594.394 114.967 590.034C112.087 585.674 104.502 580.036 103.062 575.088C101.927 571.153 103.062 566.976 103.549 562.92C103.861 559.861 103.942 556.783 103.792 553.713C103.792 551.036 102.657 546.331 103.285 545.195C103.641 544.579 104.168 544.079 104.801 543.756C105.434 543.432 106.147 543.298 106.855 543.37L107.26 546.25C109.004 548.886 112.918 548.44 113.872 549.799C115.088 551.522 114.439 554.402 116.244 555.477C118.272 554.341 117.481 550.63 119.489 549.393C120.578 548.931 121.787 548.832 122.937 549.109C124.55 549.224 126.171 549.016 127.703 548.497C129.235 547.978 130.648 547.159 131.86 546.087C132.631 545.377 133.624 544.526 134.557 544.952C135.49 545.377 135.531 546.29 135.612 547.142C135.794 548.541 135.916 550.082 135.916 551.624Z" fill="#37474F"/>
<path d="M174.103 610.456C175.077 601.553 169.946 597.923 162.665 592.204C142.061 590.521 135.47 599.099 128.595 611.267C134.315 615.448 141.011 618.094 148.043 618.953C165.505 619.825 173.475 614.451 174.103 610.456Z" fill="#455A64"/>
<path d="M117.664 117.469C130.826 115.928 137.031 121.525 150.457 139.149C163.882 156.772 191.362 189.524 191.362 189.524L166.742 211.954L115.92 157.198L117.664 117.469Z" fill="#5F85DB"/>
<path opacity="0.15" d="M117.664 117.469C130.826 115.928 137.031 121.525 150.457 139.149C163.882 156.772 191.362 189.524 191.362 189.524L166.742 211.954L115.92 157.198L117.664 117.469Z" fill="black"/>
<path d="M101.704 74.78L92.8413 104.734C68.2011 104.734 52.9708 80.7423 52.9708 56.0616C52.9708 31.2997 68.7284 10.6141 93.5308 10.6141H101.643C126.384 10.6141 146.462 27.0612 146.462 51.8028C146.34 68.0471 126.364 74.78 101.704 74.78Z" fill="#263238"/>
<path d="M27.7222 118.585H35.672C38.2819 118.585 40.8663 118.071 43.2776 117.072C45.6888 116.073 47.8798 114.609 49.7253 112.764C51.5708 110.918 53.0347 108.727 54.0335 106.316C55.0323 103.905 55.5463 101.32 55.5463 98.7104L56.7023 38.0732H47.6169C42.344 38.0732 37.2868 40.1665 33.5564 43.8931C29.826 47.6196 27.7276 52.6747 27.7222 57.9476V118.585Z" fill="#263238"/>
<path d="M150.964 29.008C152.855 25.9164 153.767 22.3251 153.58 18.7058C153.462 16.9037 152.938 15.1517 152.046 13.5815C151.153 12.0114 149.917 10.664 148.429 9.64063C143.825 6.70003 137.437 8.07908 133.158 11.4861C132.819 8.26069 131.235 5.29478 128.743 3.21928C126.251 1.14379 123.047 0.122496 119.814 0.372668C115.758 0.676868 112.067 2.94823 108.518 5.01679C102.508 8.0728 96.0193 10.0757 89.3329 10.9385L96.8567 13.9197C95.8223 15.492 95.1667 17.2829 94.9415 19.1514C94.7163 21.02 94.9276 22.9153 95.5588 24.6884C95.8712 25.4076 96.2659 26.0882 96.735 26.7164C101.743 34.2055 108.66 40.2216 116.77 44.1434C124.881 48.0651 133.892 49.7501 142.872 49.0244C145.394 48.9816 147.861 48.2827 150.031 46.9964C151.309 46.1078 152.387 44.9609 153.195 43.6299C154.798 41.2856 155.575 38.4745 155.405 35.6396C155.29 34.2478 154.821 32.9084 154.044 31.7481C153.267 30.5877 152.207 29.6446 150.964 29.008Z" fill="#263238"/>
<path d="M82.4579 116.78L61.2856 118.808C50.5777 121.444 50.74 125.886 49.6449 135.397C49.1379 139.818 44.3721 154.217 48.1239 168.96C51.5309 182.345 62.6646 212.481 62.6646 212.481C62.6646 212.481 50.9428 241.928 45.3861 256.894C83.4922 281.758 130.562 271.942 146.34 256.894C145.001 242.698 139.972 229.435 138.836 216.74C138.836 216.74 139.668 196.926 141.229 188.348C153.296 175.207 151.755 162.613 146.34 152.452C136.342 133.714 121.274 117.246 116.407 117.267L82.4579 116.78Z" fill="#F0F0F0"/>
<path d="M105.192 271.739C95.9036 270.016 88.0552 268.069 84.5873 266.061C76.7998 261.579 72.9669 253.994 70.513 245.781C68.0591 237.568 73.9809 228.928 74.8529 220.492C75.5627 213.678 72.683 208.324 70.7969 202.017C68.9109 195.71 67.0452 188.814 65.4228 182.142C64.2025 177.876 63.2341 173.543 62.5227 169.163C62.2288 167.027 62.1473 164.867 62.2793 162.714C62.3807 161.294 63.6584 158.536 63.415 157.279L59.0751 134.971L48.9351 138.824C47.5966 145.152 44.8791 156.955 48.0428 169.021C51.4498 182.406 62.5835 212.542 62.5835 212.542C62.5835 212.542 50.8617 241.989 45.305 256.955C63.1005 268.33 84.1474 273.525 105.192 271.739Z" fill="#E0E0E0"/>
<path d="M36.6657 231.646C42.5266 210.027 56.6618 173.442 56.6618 173.442C65.301 152.858 64.3884 130.388 61.2856 118.686C43.0336 119.741 35.9153 122.742 26.8096 147.078C19.9144 165.594 6.79323 209.825 0.952587 229.739C0.0761371 232.731 0.151855 235.922 1.16926 238.868C2.18667 241.815 4.0954 244.373 6.63099 246.187" fill="#B16668"/>
<path d="M103.833 265.412C103.883 264.961 104.083 264.54 104.401 264.215C107.2 260.93 117.36 259.004 117.989 257.32C118.617 255.637 114.054 252.129 105.496 253.467C96.9379 254.806 95.356 257.523 84.4251 256.915C77.3474 256.469 48.5904 239.474 38.1056 228.36L6.69186 246.329C24.4774 259.064 50.1113 272.186 61.5493 278.026C72.9872 283.867 82.7216 288.612 96.37 291.066" fill="#B16668"/>
<path d="M65.3619 118.585C51.9163 118.402 43.6826 118.727 36.037 127.021C28.3914 135.316 26.8096 142.17 20.0969 161.497C13.3842 180.824 5.90091 213.353 5.90091 213.353C5.90091 213.353 15.4325 224.953 39.5049 222.053L62.3807 161.984C62.3807 161.984 68.992 139.676 65.3619 118.585Z" fill="#5F85DB"/>
<path opacity="0.15" d="M65.3619 118.585C51.9163 118.402 43.6826 118.727 36.037 127.021C28.3914 135.316 26.8096 142.17 20.0969 161.497C13.3842 180.824 5.90091 213.353 5.90091 213.353C5.90091 213.353 15.4325 224.953 39.5049 222.053L62.3807 161.984C62.3807 161.984 68.992 139.676 65.3619 118.585Z" fill="black"/>
<path d="M121.132 33.3683C132.408 34.5242 141.838 46.5097 141.209 73.7052C140.662 96.7636 133.097 102.462 129.447 104.125C125.796 105.788 118.455 106.011 111.418 104.835V117.368C111.418 117.368 119.53 135.214 116.082 141.582C96.8162 133.693 82.4579 116.739 82.4579 116.739V88.3474C82.4579 88.3474 77.7124 93.9649 69.9452 88.8138C62.1779 83.6627 61.8332 70.8863 66.3962 66.303C70.9592 61.7197 80.5921 63.1799 82.4579 69.5072C82.4579 69.5072 89.2314 69.3247 101.663 60.4826C111.121 53.9969 118.01 44.4035 121.132 33.3683Z" fill="#B16668"/>
<path d="M109.897 64.8631C109.9 65.4625 109.727 66.0497 109.4 66.5518C109.072 67.0539 108.605 67.4488 108.055 67.6877C107.505 67.9266 106.897 67.9988 106.307 67.8955C105.716 67.7922 105.169 67.5179 104.733 67.1066C104.297 66.6952 103.991 66.165 103.854 65.5815C103.716 64.9981 103.753 64.3871 103.96 63.8244C104.166 63.2616 104.533 62.7718 105.015 62.4157C105.498 62.0596 106.074 61.8529 106.672 61.8211C107.084 61.8076 107.495 61.8757 107.88 62.0216C108.265 62.1674 108.618 62.3881 108.918 62.6708C109.218 62.9536 109.458 63.2929 109.626 63.6691C109.794 64.0454 109.886 64.4512 109.897 64.8631Z" fill="#263238"/>
<path d="M113.142 86.4613L122.288 89.3816C122.12 89.9935 121.832 90.5654 121.438 91.0633C121.045 91.5612 120.556 91.9748 120 92.2795C119.443 92.5842 118.831 92.7737 118.2 92.8368C117.569 92.8999 116.931 92.8352 116.326 92.6467C115.094 92.2332 114.072 91.3556 113.478 90.2005C112.883 89.0454 112.762 87.7039 113.142 86.4613Z" fill="#9A4A4D"/>
<path d="M137.092 57.7854L130.887 53.4657C131.147 53.0489 131.49 52.6893 131.894 52.4089C132.298 52.1285 132.754 51.9331 133.236 51.8344C133.718 51.7358 134.215 51.7361 134.696 51.8352C135.178 51.9344 135.634 52.1303 136.038 52.4111C136.853 53.0131 137.414 53.8987 137.609 54.8934C137.804 55.8881 137.62 56.9198 137.092 57.7854Z" fill="#263238"/>
<path d="M134.801 64.275C134.831 64.6843 134.78 65.0955 134.65 65.4849C134.52 65.8742 134.315 66.234 134.045 66.5433C133.775 66.8527 133.447 67.1054 133.079 67.2869C132.711 67.4685 132.31 67.5752 131.901 67.6009C131.268 67.6568 130.633 67.5222 130.077 67.2144C129.522 66.9067 129.071 66.4398 128.783 65.8738C128.495 65.3078 128.383 64.6686 128.46 64.0383C128.538 63.408 128.803 62.8155 129.221 62.3368C129.638 61.8581 130.189 61.5152 130.803 61.3521C131.417 61.189 132.065 61.2132 132.665 61.4216C133.265 61.63 133.789 62.0131 134.169 62.5215C134.55 63.03 134.77 63.6406 134.801 64.275Z" fill="#263238"/>
<path d="M119.307 62.5106L119.793 80.9857L129.528 77.9843L119.307 62.5106Z" fill="#9A4A4D"/>
<path d="M111.418 104.815C104.016 103.841 88.765 98.2034 86.372 92.1802C87.3255 95.2366 89.1944 97.9266 91.7259 99.8867C96.2889 103.78 111.418 108.181 111.418 108.181V104.815Z" fill="#9A4A4D"/>
<path d="M115.798 172.854L163.517 183.988L194.16 157.218L233.605 167.095L262.991 139.149L211.337 270.502L194.16 285.449L162.787 284.09L133.117 308.243L99.412 300.801L115.798 172.854Z" fill="#5F85DB"/>
<path opacity="0.6" d="M115.798 172.854L163.517 183.988L194.16 157.218L233.605 167.095L262.991 139.149L211.337 270.502L194.16 285.449L162.787 284.09L133.117 308.243L99.412 300.801L115.798 172.854Z" fill="white"/>
<path opacity="0.1" d="M194.16 157.218L162.787 284.09L133.117 308.243L163.517 183.988L194.16 157.218Z" fill="black"/>
<path opacity="0.1" d="M233.605 167.095L262.991 139.149L211.337 270.502L194.16 285.449L233.605 167.095Z" fill="black"/>
<path d="M134.821 302.24H134.598L106.429 296.359C106.176 296.305 105.953 296.159 105.803 295.949C105.653 295.739 105.587 295.48 105.618 295.224L121.071 181.534C121.092 181.394 121.143 181.26 121.22 181.141C121.297 181.022 121.398 180.921 121.517 180.844C121.633 180.762 121.766 180.706 121.907 180.681C122.047 180.657 122.191 180.664 122.328 180.702L161.469 190.214L191.321 165.269C191.44 165.168 191.581 165.097 191.732 165.062C191.884 165.026 192.042 165.028 192.193 165.067L230.847 173.442L251.978 155.758C252.157 155.625 252.374 155.553 252.597 155.553C252.82 155.553 253.037 155.625 253.216 155.758C253.398 155.891 253.531 156.08 253.593 156.297C253.656 156.514 253.644 156.745 253.56 156.955L209.756 269.225C209.699 269.372 209.609 269.504 209.492 269.61L196.655 280.764C196.556 280.852 196.44 280.919 196.315 280.961C196.189 281.003 196.056 281.018 195.925 281.007L164.592 279.182L135.45 302.078C135.263 302.198 135.042 302.255 134.821 302.24ZM107.767 294.534L134.557 300.131L163.639 277.296C163.841 277.153 164.081 277.076 164.328 277.073L195.641 278.898L207.971 268.19L250.234 159.834L231.78 175.308C231.661 175.409 231.52 175.48 231.368 175.516C231.216 175.551 231.059 175.549 230.908 175.511L192.234 167.135L162.28 192.079C162.16 192.179 162.02 192.25 161.869 192.289C161.718 192.327 161.561 192.332 161.408 192.303L122.876 182.913L107.767 294.534Z" fill="#FAFAFA"/>
<path d="M139.546 273.625C138.208 269.103 131.799 273.524 120.605 271.962C110.809 270.624 103.59 268.15 103.833 265.351L96.37 291.005C99.7182 291.596 103.11 291.901 106.51 291.918C125.999 292.06 140.885 278.168 139.546 273.625Z" fill="#B16668"/>
<path d="M229.954 223.148C225.047 227.063 220.017 225.176 217.482 231.402C214.947 237.628 215.637 247.221 220.869 246.268C227.622 245.031 230.259 242.212 232.165 238.784C239.445 226.008 232.57 216.476 232.57 216.476L229.954 223.148Z" fill="#B16668"/>
</svg>
